<?xml version="1.0" encoding="UTF-8"?>
<svg id="Layer_1" data-name="Layer 1" xmlns="http://www.w3.org/2000/svg" xmlns:xlink="http://www.w3.org/1999/xlink" viewBox="0 0 260.97 301.56">
  <defs>
    <style>
      .cls-1, .cls-2 {
        fill: none;
      }

      .cls-3 {
        fill: #494848;
      }

      .cls-4 {
        fill: #adaeb3;
      }

      .cls-5 {
        fill: #232323;
      }

      .cls-6 {
        fill: #76757a;
      }

      .cls-7 {
        fill: #3f4f53;
      }

      .cls-8 {
        fill: #676868;
      }

      .cls-9 {
        fill: #626267;
      }

      .cls-10 {
        fill: url(#linear-gradient-8);
      }

      .cls-11 {
        fill: url(#linear-gradient-7);
      }

      .cls-12 {
        fill: url(#linear-gradient-5);
      }

      .cls-13 {
        fill: url(#linear-gradient-6);
      }

      .cls-14 {
        fill: url(#linear-gradient-9);
      }

      .cls-15 {
        fill: url(#linear-gradient-4);
      }

      .cls-16 {
        fill: url(#linear-gradient-3);
      }

      .cls-17 {
        fill: url(#linear-gradient-2);
      }

      .cls-18 {
        fill: #454545;
      }

      .cls-19 {
        fill: #3e3f41;
      }

      .cls-20 {
        fill: url(#linear-gradient);
      }

      .cls-21 {
        fill: #8f9095;
      }

      .cls-22 {
        fill: #33393e;
      }

      .cls-23 {
        fill: #565555;
      }

      .cls-24 {
        fill: #575858;
      }

      .cls-25 {
        fill: #1d1d1b;
      }

      .cls-26 {
        fill: #3e3e3e;
      }

      .cls-27 {
        fill: #676666;
      }

      .cls-28 {
        fill: #525256;
      }

      .cls-29 {
        fill: #939297;
      }

      .cls-30 {
        fill: #3a3a3a;
      }

      .cls-31 {
        fill: #a4a4ab;
      }

      .cls-32 {
        fill: #3d3d3d;
      }

      .cls-33 {
        fill: #8a8a91;
      }

      .cls-34 {
        fill: #6f6f6f;
      }

      .cls-35 {
        fill: #a8a9af;
      }

      .cls-36 {
        fill: #8a8b90;
      }

      .cls-37 {
        fill: #a1a1a6;
      }

      .cls-38 {
        fill: url(#linear-gradient-10);
      }

      .cls-39 {
        fill: url(#linear-gradient-11);
      }

      .cls-40 {
        fill: url(#linear-gradient-12);
      }

      .cls-41 {
        fill: #86858b;
      }

      .cls-42 {
        fill: #fefefe;
      }

      .cls-2 {
        stroke: #000;
        stroke-miterlimit: 10;
        stroke-width: 2px;
      }

      .cls-43 {
        fill: #262d2f;
      }

      .cls-44 {
        fill: #87888d;
      }

      .cls-45 {
        fill: #383636;
      }

      .cls-46 {
        fill: #ababb3;
      }

      .cls-47 {
        fill: #afafb4;
      }

      .cls-48 {
        fill: #888;
      }

      .cls-49 {
        fill: #808185;
      }

      .cls-50 {
        fill: #222;
      }

      .cls-51 {
        fill: #616165;
      }

      .cls-52 {
        fill: #fdfdfd;
      }
    </style>
    <linearGradient id="linear-gradient" x1="2963.99" y1="1990.11" x2="4308.3" y2="3327.14" gradientTransform="translate(-174.45 -136.68) scale(.07)" gradientUnits="userSpaceOnUse">
      <stop offset="0" stop-color="#989898"/>
      <stop offset=".84" stop-color="#21211f"/>
      <stop offset="1" stop-color="#1d1d1b"/>
    </linearGradient>
    <linearGradient id="linear-gradient-2" x1="2405.31" y1="5676.62" x2="9213.31" y2="5679.91" gradientTransform="translate(-174.45 -136.68) scale(.07)" gradientUnits="userSpaceOnUse">
      <stop offset="0" stop-color="#cccdd2"/>
      <stop offset=".02" stop-color="#cfd0d5"/>
      <stop offset=".08" stop-color="#87888d"/>
      <stop offset=".51" stop-color="#cbccd2"/>
      <stop offset=".93" stop-color="#86878c"/>
      <stop offset=".94" stop-color="#8c8d92"/>
      <stop offset=".98" stop-color="#cfd0d5"/>
      <stop offset="1" stop-color="#d3d4d9"/>
    </linearGradient>
    <linearGradient id="linear-gradient-3" x1="2405.34" y1="5609.62" x2="9213.34" y2="5612.91" xlink:href="#linear-gradient-2"/>
    <linearGradient id="linear-gradient-4" x1="2405.34" y1="5608.34" x2="9213.34" y2="5611.63" xlink:href="#linear-gradient-2"/>
    <linearGradient id="linear-gradient-5" x1="2405.28" y1="5737.95" x2="9213.28" y2="5741.24" xlink:href="#linear-gradient-2"/>
    <linearGradient id="linear-gradient-6" x1="2405.28" y1="5739.11" x2="9213.28" y2="5742.4" xlink:href="#linear-gradient-2"/>
    <linearGradient id="linear-gradient-7" x1="5292.12" y1="5653.18" x2="6292.12" y2="5653.87" gradientTransform="translate(-174.45 -136.68) scale(.07)" gradientUnits="userSpaceOnUse">
      <stop offset="0" stop-color="#77767c"/>
      <stop offset=".02" stop-color="#85848a"/>
      <stop offset=".52" stop-color="#acacb4"/>
      <stop offset=".75" stop-color="#8a8b91"/>
      <stop offset="1" stop-color="#7b7c81"/>
    </linearGradient>
    <linearGradient id="linear-gradient-8" x1="5292.15" y1="5606.53" x2="6292.15" y2="5607.22" xlink:href="#linear-gradient-7"/>
    <linearGradient id="linear-gradient-9" x1="5292.14" y1="5609.25" x2="6292.14" y2="5609.94" xlink:href="#linear-gradient-7"/>
    <linearGradient id="linear-gradient-10" x1="5292.15" y1="5606.66" x2="6292.15" y2="5607.35" xlink:href="#linear-gradient-7"/>
    <linearGradient id="linear-gradient-11" x1="2405.3" y1="5691.83" x2="9213.3" y2="5695.12" xlink:href="#linear-gradient-2"/>
    <linearGradient id="linear-gradient-12" x1="5292.09" y1="5693.22" x2="6292.09" y2="5693.91" xlink:href="#linear-gradient-7"/>
  </defs>
  <path class="cls-1" d="M50.57,39.88c0-.6,0-1.2,0-1.8.02-2.19-.02-4.4,0-6.6-.2,0-.36,0-.49-.04l-.02,8.86c.08-.13.25-.27.51-.42Z"/>
  <path class="cls-1" d="M50.57,41.08c-.26-.15-.43-.29-.51-.43v1.85c.1-.34.14-.73.11-1.19l.4-.24Z"/>
  <path class="cls-1" d="M49.59,262.92c-.07-.18-.14-.36-.22-.54,0,.24.1.41.22.54Z"/>
  <path class="cls-1" d="M50.57,120.54c-.26-.12-.47-.31-.65-.53v1.88c0-.52.22-1.04.65-1.35Z"/>
  <path class="cls-1" d="M50.57,176.32c-.88-1.45-.86-3.62,0-5.1-.31-.25-.54-.59-.73-.97l-.02,9.77c.07-.13.15-.25.24-.36-.2-1.36-.03-2.47.51-3.34Z"/>
  <path class="cls-1" d="M49.99,128.83l.57-.49c-.8-1.68-.8-3.42,0-5.1-.44-.3-.65-.82-.65-1.34l-.02,9.21c.14-.74.18-1.5.09-2.29Z"/>
  <path class="cls-45" d="M53.87,3.3c1.11-.91,2.89-1.7,4.34-1.81h202.76V0H57.47c-.1,0-.2-.01-.3,0l-.9.3c-.1.02-.21-.03-.3,0-.46.18-.66.38-.6.6-.97.76-2.24.91-1.5,2.4Z"/>
  <path class="cls-32" d="M50.87,31.49c.02-7.73-.04-15.48.03-23.21.22-1.59,1.76-3.98,2.97-4.97-2.01-.39.41-2.03,1.5-2.4-2.63.37-4.77,3.24-5.7,5.7-.03.08.03.21,0,.3l-.3.9c-.01.1,0,.2,0,.3-.49,6.98,0,15.08,0,22.19.08.72.23,1.05.71,1.16l.04-23.07-.04,23.07c.14.03.3.05.49.04h.3Z"/>
  <path class="cls-32" d="M53.87,3.3c-.74-1.49.53-1.64,1.5-2.4-1.09.37-3.51,2-1.5,2.4Z"/>
  <path class="cls-26" d="M50.59,263.44c.11.37-.04,1.39-.02,1.93h.3c-.59-31.38-.59-62.77,0-94.15h-.3c-.86,1.48-.88,3.65,0,5.1-.54.87-.71,1.98-.51,3.34-.09.11-.17.23-.24.36l-.14,82.98c.35.3.88.34.91.45Z"/>
  <path class="cls-26" d="M49.67,262.99l.14-82.98c-.28.5-.43,1.16-.45,2-.6,26.61,0,53.7,0,80.36.08.18.15.36.22.54.03.03.06.05.09.08Z"/>
  <path class="cls-34" d="M49.66,273.36v-5.55c-.07-.17-.14-.39-.29-.65v6.6c.09-.18.19-.3.29-.4Z"/>
  <path class="cls-34" d="M50.57,273.17c.02-1.69.02-3.4,0-5.1-.59.13-.77.01-.9-.25v5.55c.21-.21.48-.28.9-.2Z"/>
  <path class="cls-23" d="M49.67,283.66c.13-.88.05-1.97-.02-3.06v2.78s0-2.78,0-2.78c-.09-1.23-.18-2.45,0-3.37,0,0,0,0,0,0v-2.36c-.1.1-.2.23-.28.4v8.4c.06-.27.16-.26.3,0Z"/>
  <path class="cls-23" d="M50.59,276.9c.11-.56-.04-1.57-.02-2.24-.42-.08-.69-.02-.91.2v2.36c.08-.34.87.04.93-.32Z"/>
  <path class="cls-24" d="M49.67,266.08v-2.91c-.02-.09-.05-.17-.08-.26-.12-.13-.21-.31-.22-.54v3.3c.09.18.19.31.3.41Z"/>
  <path class="cls-24" d="M50.57,266.27c0-.3,0-.6,0-.9l-.59-.42c0-.59-.11-1.18-.3-1.77v2.91c.21.2.48.27.89.19Z"/>
  <path class="cls-24" d="M50.57,265.37c-.02-.54.13-1.56.02-1.93-.03-.11-.56-.15-.91-.45v.18c.19.6.3,1.19.3,1.77l.59.42Z"/>
  <path class="cls-24" d="M49.59,262.92c.03.09.06.17.09.26v-.18s-.06-.05-.09-.08Z"/>
  <path class="cls-8" d="M49.67,266.67c-.15-.22-.25-.59-.3-1v1.5c.1-.02.2-.02.3,0v-.5Z"/>
  <path class="cls-8" d="M50.57,268.07c0-.6,0-1.2,0-1.8-.36.74-.67.75-.9.4v.5c.33.07.63.36.9.9Z"/>
  <path class="cls-8" d="M50.57,268.07c-.27-.53-.57-.83-.9-.9v.64c.13.27.31.39.9.25Z"/>
  <path class="cls-8" d="M49.67,267.17c-.1-.02-.2-.02-.3,0,.15.26.22.48.3.65v-.64Z"/>
  <path class="cls-8" d="M50.57,266.27c-.41.08-.68.02-.9-.19v.59c.22.34.54.34.9-.4Z"/>
  <path class="cls-8" d="M49.67,266.08c-.11-.1-.21-.23-.3-.41.05.41.16.78.3,1v-.59Z"/>
  <path class="cls-27" d="M49.65,273.81c-.09,0-.18-.01-.29-.04v1.5c.05-.4.15-.76.29-.99v-.47Z"/>
  <path class="cls-27" d="M50.57,274.67c.01-.5,0-1,0-1.5-.2.49-.48.68-.91.64v.47c.22-.36.55-.37.91.39Z"/>
  <path class="cls-27" d="M49.66,273.36c-.11.1-.2.23-.29.4.11.03.2.04.29.04v-.45Z"/>
  <path class="cls-27" d="M50.57,273.17c-.42-.08-.69-.02-.91.2v.45c.43.04.71-.16.91-.64Z"/>
  <path class="cls-27" d="M50.57,274.67c-.36-.76-.69-.75-.91-.39v.58c.22-.21.49-.28.91-.2Z"/>
  <path class="cls-27" d="M49.65,274.86v-.58c-.14.22-.24.58-.29.99.09-.18.18-.3.29-.4Z"/>
  <path d="M218.27,283.66h26.82c5.29-.05,10.59-.08,15.88-.08v-16.03l-199.6.23-.31-.73c.02-21.74.02-43.49.01-65.23l-8.7,9.9V8.25c0-1.61,3.66-5.25,5.25-5.25h176.55l-14.4,16.79c13.73,0,27.47,0,41.2,0v-6.04c-.35.06-.72.09-1.15.05-3.4-.3-3.23-5.55.08-5.95.39-.05.74,0,1.07.07V2.09H58.24c-1.33.14-2.61.69-3.7,1.45l-.67-.24.17.65c-1.18,1.19-2.18,2.73-2.55,4.37.24,7.76.04,15.48-.62,23.17,0,2.79,0,5.6,0,8.4-.05,26.88,0,53.78,0,80.66,0,16.89,0,33.79,0,50.67v112.44c55.79-.03,111.61,0,167.4,0Z"/>
  <path d="M58.24,2.09h202.73v-.6H58.2c-1.45.12-3.23.9-4.34,1.81l.67.24c1.09-.76,2.37-1.31,3.7-1.45Z"/>
  <path d="M51.49,8.32c.36-1.64,1.36-3.17,2.55-4.37l-.17-.65c-1.22,1-2.76,3.38-2.97,4.97-.07,7.74,0,15.48-.03,23.21.66-7.69.87-15.41.62-23.17Z"/>
  <path d="M50.87,265.37v-94.15c-.59,31.38-.59,62.77,0,94.15Z"/>
  <path class="cls-30" d="M50.57,120.54h.3c-.92-26.87-.97-53.79,0-80.66h-.3c-.26.15-.43.29-.51.42v.35c.08.13.25.27.51.43l-.4.24c.03.46-.01.85-.11,1.19l-.13,77.5c.18.22.39.41.65.53Z"/>
  <path class="cls-30" d="M49.45,43.46c-.12,4.91-.15,9.81-.08,14.71-.07,20.18,0,40.39,0,60.57.1.53.29.95.55,1.27l.13-77.5c-.12.4-.31.72-.61.95Z"/>
  <path class="cls-30" d="M50.06,40.66v-.35c-.07.12-.07.23,0,.35Z"/>
  <path class="cls-30" d="M50.87,39.88c-.97,26.87-.92,53.79,0,80.66,0-26.88-.05-53.78,0-80.66Z"/>
  <path class="cls-32" d="M49.92,121.9h0s0,0,0,0Z"/>
  <path class="cls-32" d="M50.87,171.22c-.74-16.89-.75-33.79,0-50.67-.09.26-.19.26-.3,0-.42.31-.64.83-.65,1.35h0c0,.53.21,1.05.65,1.35-.8,1.68-.8,3.42,0,5.1l-.57.49c.09.79.05,1.55-.09,2.29l-.07,39.13c.19.39.42.72.73.97.09-.26.19-.26.3,0Z"/>
  <path class="cls-32" d="M49.37,132.84v35.38c.04.82.2,1.48.47,2.03l.07-39.13c-.11.59-.28,1.16-.53,1.72Z"/>
  <path class="cls-32" d="M50.57,171.22h.3c-.11-.26-.21-.26-.3,0Z"/>
  <path class="cls-32" d="M50.87,171.22c0-16.89,0-33.79,0-50.67-.75,16.89-.74,33.79,0,50.67Z"/>
  <path class="cls-32" d="M50.87,120.54h-.3c.11.26.21.26.3,0Z"/>
  <path class="cls-44" d="M171.14,283.8c15.83.03,31.58.09,47.12.16v-.3c-15.71.07-31.42.11-47.12.14Z"/>
  <path class="cls-44" d="M50.87,283.66c-.4,0-.8,0-1.2,0-.1,0-.2,0-.3,0-.1,0-.2,0-.3,0v.3c15.67-.08,31.55-.13,47.52-.17-15.24-.03-30.48-.07-45.72-.13Z"/>
  <path class="cls-44" d="M49.37,283.66c.1,0,.2,0,.3,0-.14-.26-.24-.27-.3,0Z"/>
  <path class="cls-44" d="M50.87,283.66c15.24.06,30.48.1,45.72.13,24.78-.05,49.77-.05,74.56,0,15.71-.03,31.42-.07,47.12-.14-55.79,0-111.61-.03-167.4,0Z"/>
  <path class="cls-3" d="M50.87,31.49c-.09.26-.19.26-.3,0-.02,2.19.02,4.4,0,6.6,0,.6,0,1.2,0,1.8.09-.26.19-.26.3,0-.23-2.79-.24-5.6,0-8.4Z"/>
  <path class="cls-3" d="M50.87,31.49h-.3c.11.26.21.26.3,0Z"/>
  <path class="cls-3" d="M50.87,39.88c0-2.79,0-5.6,0-8.4-.24,2.79-.23,5.6,0,8.4Z"/>
  <path class="cls-3" d="M50.57,39.88h.3c-.11-.26-.21-.26-.3,0Z"/>
  <path d="M61.06,21.44c0-.51-.19-1.33.31-1.64l.29-.6h157.74l.38.6,14.4-16.79H57.62c-1.59,0-5.25,3.64-5.25,5.25v203.45l8.7-9.9c0-.1,0-.2,0-.3-.02-59.99-.64-120.07,0-180.06Z"/>
  <path class="cls-20" d="M61.06,21.44c0-.51-.19-1.33.31-1.64l.29-.6h157.74l.38.6,14.4-16.79H57.62c-1.59,0-5.25,3.64-5.25,5.25v203.45l8.7-9.9c0-.1,0-.2,0-.3-.02-59.99-.64-120.07,0-180.06Z"/>
  <path class="cls-5" d="M259.89,7.85c-3.31.41-3.48,5.65-.08,5.95.43.04.8,0,1.15-.05v-5.83c-.33-.08-.68-.12-1.07-.07Z"/>
  <path class="cls-22" d="M220.97,283.66c.16.05.21.11.17.17.04.02.08.06.13.13.34-.24.86-.23,1.2,0,7.54-.13,15.08-.23,22.62-.3h-24.12Z"/>
  <path class="cls-18" d="M50.62,277.06s0-.03,0-.04c0,.02-.01.04-.02.05h.02Z"/>
  <path class="cls-18" d="M50.67,273.47c0-.51.01-1.01.02-1.52-.03.41-.07.81-.13,1.21.05.1.08.2.11.3Z"/>
  <path class="cls-18" d="M50.28,283.04c0-1.68,0-3.36-.01-5.05-.04.09-.08.19-.12.28l.14,4.77Z"/>
  <path class="cls-18" d="M50.66,265.52c.12.24.1.54-.09.75.23.57.23,1.23,0,1.8.1.71.15,1.43.17,2.15.04-1.62.08-3.24.13-4.85-.06.19-.13.24-.21.15Z"/>
  <path class="cls-18" d="M50.65,274.97c0-.19,0-.38,0-.56-.03.09-.05.18-.09.26.04.1.06.2.09.3Z"/>
  <path class="cls-18" d="M50.87,265.37h-.3s.07.1.09.15c.08.08.15.04.21-.15Z"/>
  <path class="cls-18" d="M50.57,273.17c.06-.4.1-.81.13-1.21.01-.58.02-1.16.04-1.74-.02-.72-.06-1.44-.17-2.15.02,1.69.02,3.4,0,5.1Z"/>
  <path class="cls-18" d="M50.28,283.23c0-.06,0-.13,0-.19l-.14-4.77c.04-.09.08-.19.12-.28,0-.22,0-.43,0-.65l.34-.26s.01-.04.02-.05c0-.69.02-1.37.03-2.05-.03-.1-.05-.2-.09-.3-.02.67.13,1.68.02,2.24-.07.36-.85-.02-.94.32v3.38c.07,1.09.14,2.18.02,3.06.19-.3.4-.44.62-.43Z"/>
  <path class="cls-18" d="M49.64,277.23c-.18.92-.09,2.14,0,3.37v-3.38s0,0,0,0Z"/>
  <path class="cls-18" d="M50.66,265.52s-.06-.08-.09-.15c0,.3,0,.6,0,.9.19-.21.21-.51.09-.75Z"/>
  <path class="cls-18" d="M50.66,265.52c-.03-.05-.05-.11-.09-.15.03.07.06.12.09.15Z"/>
  <path class="cls-18" d="M50.57,266.27c0,.6,0,1.2,0,1.8.23-.57.23-1.23,0-1.8Z"/>
  <path class="cls-18" d="M50.57,274.67c.04-.08.07-.17.09-.26,0-.31,0-.62.01-.93-.03-.1-.06-.21-.11-.3,0,.5.01,1,0,1.5Z"/>
  <path class="cls-18" d="M50.73,270.22c.01.58,0,1.16-.04,1.74,0,.5-.01,1.01-.02,1.52.08.31.08.63-.01.93,0,.19,0,.38,0,.56.21.75.15,1.42-.03,2.05,0,.01,0,.03,0,.04h-.02c-.09.33-.21.63-.34.93,0,1.69,0,3.37.01,5.05v.19c.2,0,.4.15.58.43v-18.29c-.06,1.61-.1,3.23-.13,4.85Z"/>
  <path class="cls-18" d="M50.73,270.22c-.01.58-.03,1.16-.04,1.74.04-.58.05-1.16.04-1.74Z"/>
  <path class="cls-18" d="M50.27,277.98c.13-.3.25-.6.34-.91l-.34.26c0,.22,0,.43,0,.65Z"/>
  <path class="cls-18" d="M50.29,283.23v-.19c0,.06,0,.13,0,.19,0,0,0,0,0,0Z"/>
  <path class="cls-18" d="M50.65,274.97c0,.68-.02,1.36-.03,2.05.18-.63.23-1.3.03-2.05Z"/>
  <path class="cls-18" d="M50.67,273.47c0,.31,0,.62-.01.93.09-.3.1-.62.01-.93Z"/>
  <path class="cls-18" d="M50.28,283.29l-.62.37c.4,0,.8,0,1.2,0l-.58-.28s0-.06,0-.09Z"/>
  <path class="cls-18" d="M50.28,283.23c-.21,0-.42.13-.62.43l.62-.37s0-.04,0-.06Z"/>
  <path class="cls-18" d="M50.29,283.23v.06s0,0,0,0c0,.03,0,.06,0,.09l.58.28c-.18-.28-.38-.42-.58-.43Z"/>
  <path class="cls-18" d="M50.28,283.29h0s0-.06,0-.06c0,0,0,0,0,0,0,.02,0,.04,0,.06Z"/>
  <path class="cls-42" d="M61.65,19.19l-.29.6h158.4l-.38-.6H61.65Z"/>
  <path class="cls-25" d="M61.37,201.5h-.3c.2.06.19.17,0,.3,0,21.74,0,43.49-.01,65.23l.31.73c-.27-21.8-.26-44.52,0-66.27Z"/>
  <path class="cls-25" d="M61.07,201.5c0,.1,0,.2,0,.3.19-.13.2-.24,0-.3Z"/>
  <path class="cls-25" d="M61.37,267.77v-66.27c-.26,21.75-.27,44.47,0,66.27Z"/>
  <path class="cls-48" d="M61.07,201.5c.09-.26.19-.26.3,0-.18-25.31-.27-50.64-.3-75.98-.03,25.21-.03,50.53,0,75.98Z"/>
  <path class="cls-48" d="M61.06,21.44c-.63,59.99-.02,120.07,0,180.06-.03-25.45-.03-50.77,0-75.98-.04-35.22.05-70.47.3-105.73-.5.31-.3,1.14-.31,1.64Z"/>
  <path class="cls-48" d="M61.37,201.5V19.79c-.16,35.01-.25,70.26-.3,105.73.03,25.34.12,50.66.3,75.98Z"/>
  <path class="cls-48" d="M61.07,125.53c.04-35.48.14-70.73.3-105.73-.25,35.27-.34,70.51-.3,105.73Z"/>
  <path class="cls-48" d="M61.07,201.5h.3c-.11-.26-.21-.26-.3,0Z"/>
  <path class="cls-49" d="M.47,283.96h1.8c-.36,2.68.48,6.63,0,9.15-.17.89-.74.79-1.5.75,3.98,1.49,7.28,2.52,11.4,3.6l.45-.6h248.35v-3c-36.13,0-72.27,0-108.4,0h-6.6c-18.89,0-37.81,0-56.7,0-6,0-12,0-18,0-7.49,0-15.01,0-22.5,0-7.39,0-14.81.01-22.2,0-1.2,0-2.4,0-3.6,0-5.86-.01-12.21.32-18,0-.57-.03-1.52.22-1.76-.49-.65-1.93.4-7.1-.04-9.4l-.6-.3c-.64.02-1.53-.11-2.1,0-.11.07-.14.14-.11.2.04.02.07.05.11.1Z"/>
  <path class="cls-7" d="M260.97,300.79v-1.83H19.33c.26,0,1.23.27,1.52.3.57.07,1.72.25,2.11.3.57.07,1.71.27,2.11.3.48.04,2.51.29,3.01.3.48.01,4.42.6,4.52.6,76.12.2,152.24.12,228.37.03Z"/>
  <path class="cls-52" d="M33.47,300.75c.31.5,1.14.3,1.65.31,75.27.79,150.56.49,225.85.14v-.11c-75.83.13-151.67.04-227.5-.33Z"/>
  <path class="cls-52" d="M260.97,301.09v-.3c-75.83.09-151.67.17-227.5-.03,75.83.37,151.67.46,227.5.33Z"/>
  <path class="cls-51" d="M.77,293.86c.02-.42.3-.63.86-.64.32-.51.11-8.29-.13-8.66-.55.05-.89.04-1.03-.6-.06-.03-.09-.07-.11-.1-.07-.03-.13,0-.19.1-.52,2.73.38,6.98,0,9.9.18.04.46-.05.6,0Z"/>
  <path class="cls-51" d="M.47,283.96c-.04-.05-.07-.08-.11-.1.02.03.05.07.11.1Z"/>
  <path class="cls-51" d="M2.27,293.11c.49-2.52-.36-6.46,0-9.15H.47c.14.64.49.66,1.03.6.24.36.45,8.15.13,8.66-.56,0-.84.22-.86.64.76.04,1.33.14,1.5-.75Z"/>
  <path class="cls-52" d="M29.27,300.45c1,.55,2.67.3,3.9.3-.93-.09-1.83-.19-2.7-.3-.4,0-.8,0-1.2,0Z"/>
  <path class="cls-52" d="M.77,293.86c-.02.16-.22.16-.6,0,3.73,2.02,8.14,2.93,12.3,3.9l.3.3c1.75.39,3.6.73,5.4.9-1.98-.42-4.03-.99-6-1.5-3.9-.77-7.86-1.78-11.4-3.6Z"/>
  <path class="cls-52" d="M12.17,297.45c-4.12-1.07-7.42-2.11-11.4-3.6,3.54,1.82,7.5,2.83,11.4,3.6Z"/>
  <path class="cls-52" d="M.77,293.86c-.14-.05-.42.04-.6,0,.38.16.58.16.6,0Z"/>
  <path class="cls-42" d="M18.17,298.95c.07.01.19.28.3.3v-.3c-.1,0-.2,0-.3,0Z"/>
  <path class="cls-42" d="M12.77,298.05l-.3-.3s.07.25.3.3Z"/>
  <path class="cls-17" d="M22.97,293.56c1.13,0,2.71-.25,3.6.3,7.38-.81,14.82-.83,22.2,0,.31-.5,1.14-.3,1.65-.31,6.95-.07,13.91,0,20.85,0h18c18.34,0,36.72-.23,55.05,0,.51,0,1.33-.19,1.65.31.03-.23.08-.55.27-.6.44-.11,5.29-.09,5.91,0l.43.6c.31-.5,1.14-.3,1.65-.31,35.57-.37,71.16-.27,106.75-.15v-2.55c-3.13,0-6.27,0-9.4,0-7.78-.02-15.63.22-23.4,0-1.53-.04-2.42-.06-3.9-.3-1.06-.17-1.12-.14-2.1-.6-.08-.04-.22.04-.3,0-.1-.05-.2-.22-.3-.3-.28-.22-.43-.46-.6-.6-.24-.2-.57-.22-.9-.6-.48-.55-.6-.89-.9-1.5-.46-.95-.99-1.89-.9-3H49.07c-14.59,0-29.21.09-43.8,0v9.6c5.89.01,11.8-.02,17.7,0Z"/>
  <path class="cls-44" d="M171.14,283.8c-24.85.04-49.71.04-74.56,0-15.97.03-31.85.09-47.52.17h169.2c-15.54-.07-31.29-.13-47.12-.16Z"/>
  <path class="cls-16" d="M171.14,283.8c-24.85.04-49.71.04-74.56,0-15.97.03-31.85.09-47.52.17h169.2c-15.54-.07-31.29-.13-47.12-.16Z"/>
  <path class="cls-44" d="M96.58,283.8c24.85.05,49.71.05,74.56,0-24.79-.05-49.79-.06-74.56,0Z"/>
  <path class="cls-15" d="M96.58,283.8c24.85.05,49.71.05,74.56,0-24.79-.05-49.79-.06-74.56,0Z"/>
  <path class="cls-49" d="M146.23,293.26c-.18.05-.24.37-.27.6h6.6l-.43-.6c-.62-.09-5.47-.11-5.91,0Z"/>
  <path class="cls-12" d="M146.23,293.26c-.18.05-.24.37-.27.6h6.6l-.43-.6c-.62-.09-5.47-.11-5.91,0Z"/>
  <path class="cls-49" d="M26.57,293.86c7.39.01,14.81,0,22.2,0-7.38-.83-14.82-.81-22.2,0Z"/>
  <path class="cls-13" d="M26.57,293.86c7.39.01,14.81,0,22.2,0-7.38-.83-14.82-.81-22.2,0Z"/>
  <path class="cls-6" d="M18.47,298.95c.28-.8.62-.81.9,0l.29-.6h241.31v-.9c-82.1,0-164.21,0-246.34,0,1.32.19,2.63.69,3.54,1.5.1-.26.2-.26.3,0Z"/>
  <path class="cls-6" d="M12.61,296.85l-.45.6c.76-.13,1.61-.13,2.46,0,82.13,0,164.24,0,246.34,0v-.6H12.61Z"/>
  <path class="cls-6" d="M19.66,298.35l-.29.6c.2,0,.4-.01.6,0,.09,0,.19,0,.28,0h240.72v-.6H19.66Z"/>
  <path class="cls-6" d="M12.17,297.45c1.97.51,4.02,1.08,6,1.5-.9-.81-2.21-1.3-3.54-1.5h-2.46Z"/>
  <path class="cls-6" d="M12.17,297.45h2.46c-.85-.13-1.71-.13-2.46,0Z"/>
  <path class="cls-6" d="M18.47,298.95c.3.02.6,0,.9,0-.28-.81-.62-.8-.9,0Z"/>
  <path class="cls-6" d="M18.17,298.95c.1,0,.2,0,.3,0-.1-.26-.2-.26-.3,0Z"/>
  <path class="cls-35" d="M243.86,293.58c5.7,0,11.4.02,17.11.03v-.05c-5.71,0-11.41.01-17.11.02Z"/>
  <path class="cls-35" d="M243.86,293.58c-30.62.05-61.06.14-91.29.27,36.13,0,72.27,0,108.4,0v-.24c-5.7-.01-11.4-.02-17.11-.03Z"/>
  <path class="cls-35" d="M243.86,293.58c5.7,0,11.4-.02,17.11-.02v-.16c-35.59-.13-71.19-.23-106.75.15-.51,0-1.33-.19-1.65.31,30.43-.25,60.86-.31,91.29-.27Z"/>
  <path class="cls-35" d="M152.57,293.86c30.24-.13,60.67-.22,91.29-.27-30.43-.04-60.86.02-91.29.27Z"/>
  <path class="cls-21" d="M89.27,293.56v.3c8.93-.12,17.86-.19,26.79-.21-8.86-.04-17.79-.08-26.79-.09Z"/>
  <path class="cls-21" d="M89.27,293.86c18.89,0,37.81,0,56.7,0-9.88-.09-19.86-.16-29.91-.21-8.93.02-17.86.09-26.79.21Z"/>
  <path class="cls-21" d="M144.32,293.55c-18.34-.23-36.72,0-55.05,0,9,.01,17.92.04,26.79.09,9.97-.02,19.94.04,29.91.21-.31-.5-1.14-.3-1.65-.31Z"/>
  <path class="cls-21" d="M116.05,293.65c10.06.05,20.03.12,29.91.21-9.97-.17-19.94-.23-29.91-.21Z"/>
  <path class="cls-47" d="M20.02,293.71c-1.61.01-3.22.02-4.83.02,2.59.01,5.18.05,7.78.12v-.3c-.98.08-1.97.15-2.95.16Z"/>
  <path class="cls-47" d="M4.97,293.86c2.24-.06,4.47-.1,6.7-.11-2.16,0-4.32,0-6.48-.03-.48,0-.25-8.68-.22-9.55,0-.07.13-.14.3-.2-.2,0-.4,0-.6,0v9.6c.13.04.25.17.3.3Z"/>
  <path class="cls-47" d="M11.67,293.74c-2.23.02-4.47.05-6.7.11,5.79.32,12.14-.01,18,0-2.59-.07-5.18-.11-7.78-.12-1.17,0-2.35,0-3.52,0Z"/>
  <path class="cls-47" d="M4.97,284.16c-.03.87-.26,9.54.22,9.55,2.16.02,4.32.03,6.48.03,1.17,0,2.35-.01,3.52,0,1.61,0,3.22,0,4.83-.02.98,0,1.97-.07,2.95-.16-5.9-.02-11.81.02-17.7,0v-9.6c-.17.06-.3.13-.3.2Z"/>
  <path class="cls-47" d="M15.19,293.74c-1.17,0-2.35,0-3.52,0,1.17,0,2.35,0,3.52,0Z"/>
  <path class="cls-29" d="M3.71,284.85l-.27,6.28c-.28,1.69.23,2.6,1.53,2.72-.26-.05-.36-.15-.3-.3-.19-.06-.53.18-.62-.18-.54-2.34.44-6.82.02-9.42-.3,0-.6.02-.9,0,.43,0,.61.29.54.89Z"/>
  <path class="cls-29" d="M3.21,293.37c.24.71,1.19.46,1.76.49-1.3-.13-1.81-1.03-1.53-2.72l.27-6.28c.07-.6-.11-.89-.54-.89.44,2.31-.61,7.48.04,9.4Z"/>
  <path class="cls-29" d="M4.67,293.56c-.06.15.04.25.3.3-.05-.13-.17-.26-.3-.3Z"/>
  <path class="cls-44" d="M58.12,293.68c4.38-.02,8.77.03,13.15.17v-.3c-4.45.02-8.82.06-13.15.13Z"/>
  <path class="cls-44" d="M58.12,293.68c-3.15.05-6.27.1-9.35.17,7.49,0,15.01,0,22.5,0-4.38-.14-8.76-.2-13.15-.17Z"/>
  <path class="cls-44" d="M71.27,293.56c-6.94,0-13.91-.08-20.85,0-.51,0-1.33-.19-1.65.31,3.12-.11,6.24-.16,9.35-.17,4.32-.06,8.7-.11,13.15-.13Z"/>
  <path class="cls-44" d="M48.77,293.86c3.08-.07,6.21-.13,9.35-.17-3.12.02-6.24.07-9.35.17Z"/>
  <path class="cls-36" d="M71.27,293.56c.26.09.26.19,0,.3,2.02-.07,4.03-.11,6.05-.14-2.05-.03-4.08-.08-6.05-.16Z"/>
  <path class="cls-36" d="M89.27,293.56c-1.94.09-3.96.13-5.99.16,2,.02,3.99.06,5.99.14-.26-.09-.26-.19,0-.3Z"/>
  <path class="cls-36" d="M77.32,293.72c-2.02.02-4.03.06-6.05.14,6,0,12,0,18,0-2-.07-3.99-.11-5.99-.14-1.98.03-3.97.03-5.96,0Z"/>
  <path class="cls-36" d="M83.28,293.72c2.03-.03,4.05-.07,5.99-.16h-18c1.97.09,4,.13,6.05.16,1.99-.02,3.97-.02,5.96,0Z"/>
  <path class="cls-36" d="M77.32,293.72c1.99.03,3.98.03,5.96,0-1.99-.02-3.97-.02-5.96,0Z"/>
  <path class="cls-36" d="M89.27,293.86v-.3c-.26.11-.26.21,0,.3Z"/>
  <path class="cls-36" d="M71.27,293.56v.3c.26-.11.26-.21,0-.3Z"/>
  <path class="cls-4" d="M22.97,293.56c.26.09.26.19,0,.3.53-.11,1.06-.16,1.59-.18-.54-.04-1.07-.09-1.59-.12Z"/>
  <path class="cls-4" d="M22.97,293.86c1.2,0,2.4,0,3.6,0-.68-.06-1.35-.12-2.01-.18-.53.01-1.06.06-1.59.18Z"/>
  <path class="cls-4" d="M22.97,293.56c.52.04,1.05.08,1.59.12.67-.01,1.34.04,2.01.18-.89-.55-2.47-.3-3.6-.3Z"/>
  <path class="cls-4" d="M24.56,293.68c.66.05,1.33.11,2.01.18-.67-.14-1.34-.19-2.01-.18Z"/>
  <path class="cls-4" d="M22.97,293.56v.3c.26-.11.26-.21,0-.3Z"/>
  <path class="cls-6" d="M19.97,298.95h.28c-.1,0-.19,0-.28,0Z"/>
  <path class="cls-37" d="M4.42,293.19s-.02-.08-.04-.11c.01.04.02.08.04.11Z"/>
  <path class="cls-37" d="M4.38,284.24s0-.06,0-.08c0-.07.13-.14.29-.2-.2,0-.4,0-.6,0,.15.05.25.14.31.28Z"/>
  <path class="cls-37" d="M4.38,284.16s0,.06,0,.08c.06.15.08.35.03.61l-.11,7.88c0,.12.04.24.08.35.01.03.02.08.04.11.06.13.14.25.25.36v-9.6c-.16.06-.28.13-.29.2Z"/>
  <path class="cls-37" d="M4.05,293.38c.08.36.43.12.62.18-.1-.1-.18-.22-.25-.36-.02-.04-.02-.07-.04-.11-.16-.4-.2-.93-.11-1.6-.05-2.23-.01-4.99.1-7.24-.06-.14-.16-.23-.31-.28.42,2.59-.56,7.08-.02,9.42Z"/>
  <path class="cls-37" d="M4.41,284.85c.04-.26.03-.46-.03-.61-.11,2.25-.16,5.01-.1,7.24-.09.67-.05,1.2.11,1.6-.04-.11-.07-.23-.08-.35l.11-7.88Z"/>
  <path class="cls-11" d="M251.57,290.56h9.4v-6.9h-12.45c-8.75.06-17.46.17-26.05.3-.18,1.92.38,4.18-.3,6,.48-.67,1.94-.2,2.1.6h27.3Z"/>
  <path d="M260.97,283.6v-.02c-5.29,0-10.59.04-15.88.08h3.43c4.14-.03,8.29-.05,12.45-.06Z"/>
  <path class="cls-10" d="M260.97,283.6v-.02c-5.29,0-10.59.04-15.88.08h3.43c4.14-.03,8.29-.05,12.45-.06Z"/>
  <path class="cls-22" d="M222.47,283.96c8.59-.13,17.31-.24,26.05-.3h-3.43c-7.54.07-15.08.17-22.62.3Z"/>
  <path class="cls-14" d="M222.47,283.96c8.59-.13,17.31-.24,26.05-.3h-3.43c-7.54.07-15.08.17-22.62.3Z"/>
  <path class="cls-22" d="M248.52,283.66h12.45v-.06c-4.15,0-8.3.03-12.45.06Z"/>
  <path class="cls-38" d="M248.52,283.66h12.45v-.06c-4.15,0-8.3.03-12.45.06Z"/>
  <path class="cls-39" d="M222.17,289.96c.98.46,1.04.43,2.1.6-.16-.8-1.62-1.27-2.1-.6Z"/>
  <path class="cls-40" d="M222.17,289.96c.98.46,1.04.43,2.1.6-.16-.8-1.62-1.27-2.1-.6Z"/>
  <path class="cls-9" d="M222.02,289.77l-.3-.39c.21-1.65.25-3.31.11-4.99l.63-.42c-.4,0-.8-.02-1.2,0-.16,1.51.29,3.35-.19,4.77,0,.09-.03.2-.11.33.69-.53.9-.17.6.6l.3.3c.05-.13.1-.2.15-.19Z"/>
  <path class="cls-9" d="M221.27,283.96c.4-.02.8,0,1.2,0-.34-.23-.86-.24-1.2,0Z"/>
  <path class="cls-9" d="M221.87,289.96c.08.04.22-.04.3,0l-.15-.19c-.05,0-.1.06-.15.19Z"/>
  <path class="cls-9" d="M220.97,289.06c.17.14.32.38.6.6.3-.77.09-1.13-.6-.6Z"/>
  <path class="cls-9" d="M221.08,288.73c-.04.11-.07.22-.11.33.09-.13.12-.24.11-.33Z"/>
  <path class="cls-9" d="M222.47,283.96l-.63.42c.14,1.68.1,3.34-.11,4.99l.3.39s.1.07.15.19c.68-1.82.12-4.07.3-6Z"/>
  <path class="cls-9" d="M222.02,289.77l.15.19c-.05-.13-.1-.19-.15-.19Z"/>
  <path class="cls-31" d="M228.17,290.56v.3c2.82-.05,5.65-.09,8.48-.12-2.83-.02-5.66-.07-8.48-.18Z"/>
  <path class="cls-31" d="M243.54,290.72c2.68.02,5.35.05,8.02.14v-.3c-2.67.08-5.35.13-8.02.16Z"/>
  <path class="cls-31" d="M236.65,290.74c-2.83.03-5.66.07-8.48.12,7.77.22,15.62-.02,23.4,0-2.67-.09-5.35-.12-8.02-.14-2.3.03-4.6.03-6.89.01Z"/>
  <path class="cls-31" d="M236.65,290.74c2.3-.02,4.6-.03,6.89-.01,2.67-.03,5.35-.08,8.02-.16h-23.4c2.83.11,5.66.16,8.48.18Z"/>
  <path class="cls-31" d="M236.65,290.74c2.3.02,4.6.01,6.89-.01-2.3-.01-4.59,0-6.89.01Z"/>
  <path class="cls-46" d="M251.57,290.56c.26.09.26.19,0,.3,2.08-.07,4.16-.11,6.24-.13-2.11-.03-4.2-.09-6.24-.17Z"/>
  <path class="cls-46" d="M257.81,290.72c-2.08.03-4.16.07-6.24.13,3.13,0,6.27,0,9.4,0v-.1c-1.05,0-2.11-.01-3.16-.03Z"/>
  <path class="cls-46" d="M260.97,290.56h-9.4c2.04.08,4.13.13,6.24.17,1.05-.01,2.1-.02,3.16-.03v-.14Z"/>
  <path class="cls-46" d="M256.19,290.83c1.05.02,2.1.03,3.16.03v-.06c-1.05,0-2.1.01-3.16.03Z"/>
  <path class="cls-46" d="M251.57,290.56v.3c.26-.11.26-.21,0-.3Z"/>
  <path class="cls-43" d="M219.76,284.05c-.36.09-.73.17-1.1.21l-.26-.38s-.08.05-.15.08c.76.35,1.3,2.3.9,3,.24.11.44.22.6.33v-3.24Z"/>
  <path class="cls-43" d="M220.97,283.66c-.3.12-.6.21-.9.3.2,0,.4.01.6,0,.1,0,.2,0,.3,0v-.3Z"/>
  <path class="cls-43" d="M220.06,283.96c.3-.09.61-.18.9-.3h-2.7c.2.06.24.14.15.22l.26.38c.37-.05.74-.12,1.1-.21v-.09c.1,0,.2,0,.3,0Z"/>
  <path class="cls-43" d="M218.27,283.66v.3c.06-.03.11-.06.15-.08l-.15-.22Z"/>
  <path class="cls-43" d="M218.27,283.66l.15.22c.1-.08.05-.15-.15-.22Z"/>
  <path class="cls-43" d="M221.14,283.84c.04-.06-.01-.12-.17-.17v.3c.04-.13.1-.17.17-.13Z"/>
  <path class="cls-43" d="M219.77,287.29c-.16-.11-.36-.23-.6-.33l.6.45v-.12Z"/>
  <path class="cls-43" d="M218.27,283.96c-.09,1.11.44,2.05.9,3,.4-.69-.14-2.65-.9-3Z"/>
  <path class="cls-19" d="M220.66,288.46s0,0,0,0c.19-.26-.14-3.77,0-4.5-.49.95-.63,2.05-.42,3.32-.05.14-.11.24-.17.31.2.27.2.56,0,.87.24-.02.44-.02.6,0Z"/>
  <path class="cls-19" d="M220.66,288.46c-.16-.02-.35-.02-.6,0,.17-.03.56.05.6,0Z"/>
  <path class="cls-19" d="M220.07,287.59c-.21.22-.52,0-.91-.63.3.61.42.95.9,1.5.21-.31.21-.6,0-.87Z"/>
  <path class="cls-19" d="M219.76,284.05v3.24c.14.1.23.2.31.3.06-.06.12-.16.17-.31-.21-1.27-.07-2.37.42-3.32-.2,0-.4,0-.6,0-.1.03-.2.06-.3.09Z"/>
  <path class="cls-19" d="M219.76,283.96v.09c.1-.03.2-.06.3-.09-.1,0-.2,0-.3,0Z"/>
  <path class="cls-19" d="M220.07,287.59c-.08-.1-.17-.2-.31-.3v.12s-.6-.45-.6-.45c.39.64.69.84.91.63Z"/>
  <path class="cls-28" d="M220.67,283.96c.1.22.21.72.3,1.32v-1.15s.3-.17.3-.17c-.1,0-.2,0-.3,0-.06.27-.16.26-.3,0Z"/>
  <path class="cls-28" d="M220.99,287.83c-.06.29-.16.52-.3.64.04,0,.08.01.12.02.03-.16.08-.34.18-.55v-.11Z"/>
  <path class="cls-28" d="M221.14,283.84s-.07.08-.17.13c.1,0,.2,0,.3,0-.05-.07-.09-.1-.13-.13Z"/>
  <path class="cls-28" d="M220.81,288.49s-.08-.02-.12-.02c-.15.13-.36.15-.63,0,.33.38.66.4.9.6-.16-.1-.2-.3-.15-.57Z"/>
  <path class="cls-28" d="M220.96,285.28c.12.84.17,1.86.03,2.55v.11c-.1.22-.15.39-.18.55.17.05.26.13.27.24.48-1.42.03-3.26.19-4.77l-.32.17v1.15Z"/>
  <path class="cls-28" d="M220.81,288.49c-.05.27,0,.47.15.57.05-.1.08-.22.11-.33,0-.12-.1-.2-.27-.24Z"/>
  <path class="cls-28" d="M220.97,283.96c-.1,0-.2,0-.3,0,.14.26.24.27.3,0Z"/>
  <path class="cls-28" d="M220.97,283.96c.1-.04.15-.09.17-.13-.07-.04-.13,0-.17.13Z"/>
  <path class="cls-28" d="M220.99,287.83l-.03-2.55c-.08-.59-.2-1.1-.3-1.32-.14.73.19,4.24,0,4.5,0,0,0,0,0,0,.01,0,.02,0,.03,0,.14-.12.24-.35.3-.64Z"/>
  <path class="cls-28" d="M220.69,288.47s-.02,0-.03,0c-.04.05-.43-.03-.6,0,.27.16.48.14.63,0Z"/>
  <path class="cls-28" d="M220.96,285.28l.03,2.55c.14-.68.09-1.7-.03-2.55Z"/>
  <path class="cls-33" d="M228.17,290.56c-.53.08-1.08.12-1.64.13.55.05,1.1.1,1.64.17-.26-.09-.26-.19,0-.3Z"/>
  <path class="cls-33" d="M224.27,290.56c1.48.24,2.37.26,3.9.3-.54-.07-1.09-.13-1.64-.17-.73.01-1.48-.02-2.26-.13Z"/>
  <path class="cls-33" d="M228.17,290.56h-3.9c.77.02,1.52.06,2.26.13.56-.01,1.11-.05,1.64-.13Z"/>
  <path class="cls-33" d="M226.52,290.68c-.74-.06-1.49-.11-2.26-.13.77.1,1.53.14,2.26.13Z"/>
  <path class="cls-33" d="M228.17,290.86v-.3c-.26.11-.26.21,0,.3Z"/>
  <path class="cls-41" d="M221.87,289.96l-.3-.3c.1.08.2.25.3.3Z"/>
  <line class="cls-2" x1="49.97" y1="8.38" x2="49.96" y2="283.38"/>
  <path class="cls-50" d="M219.35,17.28H59.33v250.49l201.64-.23V17.28c-13.87,0-27.75,0-41.62,0Z"/>
</svg>