<?xml version="1.0" encoding="UTF-8"?>
<svg id="Layer_1" data-name="Layer 1" xmlns="http://www.w3.org/2000/svg" xmlns:xlink="http://www.w3.org/1999/xlink" viewBox="0 0 259.87 301.2">
  <defs>
    <style>
      .cls-1 {
        fill: none;
      }

      .cls-2 {
        fill: #a9a9ae;
      }

      .cls-3 {
        fill: #5f5e5e;
      }

      .cls-4 {
        fill: #232323;
      }

      .cls-5 {
        fill: #76757a;
      }

      .cls-6 {
        fill: #707070;
      }

      .cls-7 {
        fill: #3f4f53;
      }

      .cls-8 {
        fill: url(#linear-gradient-8);
      }

      .cls-9 {
        fill: url(#linear-gradient-7);
      }

      .cls-10 {
        fill: url(#linear-gradient-5);
      }

      .cls-11 {
        fill: url(#linear-gradient-6);
      }

      .cls-12 {
        fill: url(#linear-gradient-9);
      }

      .cls-13 {
        fill: url(#linear-gradient-4);
      }

      .cls-14 {
        fill: url(#linear-gradient-3);
      }

      .cls-15 {
        fill: url(#linear-gradient-2);
      }

      .cls-16 {
        fill: #4c4d4d;
      }

      .cls-17 {
        fill: #4d4c4c;
      }

      .cls-18 {
        fill: #555454;
      }

      .cls-19 {
        fill: #84858b;
      }

      .cls-20 {
        fill: #59585d;
      }

      .cls-21 {
        fill: url(#linear-gradient);
      }

      .cls-22 {
        fill: #33393e;
      }

      .cls-23 {
        fill: #24272c;
      }

      .cls-24 {
        fill: #3e3e3e;
      }

      .cls-25 {
        fill: #676666;
      }

      .cls-26 {
        fill: #5a5b5b;
      }

      .cls-27 {
        fill: #4d4d4d;
      }

      .cls-28 {
        fill: #757575;
      }

      .cls-29 {
        fill: #4f4f4f;
      }

      .cls-30 {
        fill: #6f6f6f;
      }

      .cls-31 {
        fill: #a8a9af;
      }

      .cls-32 {
        fill: #626363;
      }

      .cls-33 {
        fill: #7d7e83;
      }

      .cls-34 {
        fill: #646464;
      }

      .cls-35 {
        fill: #4a4b4b;
      }

      .cls-36 {
        fill: url(#linear-gradient-10);
      }

      .cls-37 {
        fill: url(#linear-gradient-11);
      }

      .cls-38 {
        fill: url(#linear-gradient-12);
      }

      .cls-39 {
        fill: url(#linear-gradient-13);
      }

      .cls-40 {
        fill: url(#linear-gradient-14);
      }

      .cls-41 {
        fill: #8b8c91;
      }

      .cls-42 {
        fill: #a7a8ad;
      }

      .cls-43 {
        fill: #4a4a4a;
      }

      .cls-44 {
        fill: #9f9fa7;
      }

      .cls-45 {
        fill: #626161;
      }

      .cls-46 {
        fill: #424242;
      }

      .cls-47 {
        fill: #87888d;
      }

      .cls-48 {
        fill: #383636;
      }

      .cls-49 {
        fill: #ababb3;
      }

      .cls-50 {
        fill: #97989d;
      }

      .cls-51 {
        fill: #484848;
      }

      .cls-52 {
        fill: #808185;
      }

      .cls-53 {
        fill: #222;
      }

      .cls-54 {
        fill: #5d5e5e;
      }

      .cls-55 {
        fill: #fdfdfd;
      }

      .cls-56 {
        fill: #4b4b50;
      }
    </style>
    <linearGradient id="linear-gradient" x1="-1070.28" y1="5676.43" x2="5737.72" y2="5679.72" gradientTransform="translate(-174.74 -136.98) scale(.07)" gradientUnits="userSpaceOnUse">
      <stop offset="0" stop-color="#cccdd2"/>
      <stop offset=".02" stop-color="#cfd0d5"/>
      <stop offset=".08" stop-color="#87888d"/>
      <stop offset=".51" stop-color="#cbccd2"/>
      <stop offset=".93" stop-color="#86878c"/>
      <stop offset=".94" stop-color="#8c8d92"/>
      <stop offset=".98" stop-color="#cfd0d5"/>
      <stop offset="1" stop-color="#d3d4d9"/>
    </linearGradient>
    <linearGradient id="linear-gradient-2" x1="-1070.24" y1="5609.78" x2="5737.76" y2="5613.07" xlink:href="#linear-gradient"/>
    <linearGradient id="linear-gradient-3" x1="-1070.24" y1="5608.99" x2="5737.76" y2="5612.28" xlink:href="#linear-gradient"/>
    <linearGradient id="linear-gradient-4" x1="-1070.24" y1="5604.82" x2="5737.76" y2="5608.11" xlink:href="#linear-gradient"/>
    <linearGradient id="linear-gradient-5" x1="-1070.24" y1="5604.67" x2="5737.76" y2="5607.96" xlink:href="#linear-gradient"/>
    <linearGradient id="linear-gradient-6" x1="-1070.24" y1="5602.53" x2="5511.92" y2="5605.71" xlink:href="#linear-gradient"/>
    <linearGradient id="linear-gradient-7" x1="-1070.24" y1="5610.8" x2="5737.76" y2="5614.09" xlink:href="#linear-gradient"/>
    <linearGradient id="linear-gradient-8" x1="-1070.31" y1="5740.27" x2="5737.69" y2="5743.56" xlink:href="#linear-gradient"/>
    <linearGradient id="linear-gradient-9" x1="1816.53" y1="5657.02" x2="2816.53" y2="5657.72" gradientTransform="translate(-174.74 -136.98) scale(.07)" gradientUnits="userSpaceOnUse">
      <stop offset="0" stop-color="#77767c"/>
      <stop offset=".02" stop-color="#85848a"/>
      <stop offset=".52" stop-color="#acacb4"/>
      <stop offset=".75" stop-color="#8a8b91"/>
      <stop offset="1" stop-color="#7b7c81"/>
    </linearGradient>
    <linearGradient id="linear-gradient-10" x1="1816.56" y1="5610.45" x2="2816.56" y2="5611.14" xlink:href="#linear-gradient-9"/>
    <linearGradient id="linear-gradient-11" x1="1816.56" y1="5611.47" x2="2816.56" y2="5612.16" xlink:href="#linear-gradient-9"/>
    <linearGradient id="linear-gradient-12" x1="1816.56" y1="5610.66" x2="2816.56" y2="5611.35" xlink:href="#linear-gradient-9"/>
    <linearGradient id="linear-gradient-13" x1="-1070.28" y1="5693.44" x2="5737.72" y2="5696.73" xlink:href="#linear-gradient"/>
    <linearGradient id="linear-gradient-14" x1="1816.5" y1="5694.63" x2="2816.5" y2="5695.32" xlink:href="#linear-gradient-9"/>
  </defs>
  <path class="cls-1" d="M38,283.97c-4.02-.09-8.06-.16-12.12-.21,4.04.06,8.08.12,12.12.21Z"/>
  <path class="cls-48" d="M201.06,1.49c3.95.26,7.29,3.37,7.65,7.35v274.83c.28.02.26-.19.3-.43.23-1.83-.02-4.51,0-6.46,0-.6,0-1.2,0-1.8s0-1.2,0-1.8c0-1.79,0-3.6,0-5.4,0-.5,0-1,0-1.5,0-1,0-2,0-3,.06-27.48,0-54.98,0-82.46,0-2.09,0-4.2,0-6.3v-1.5c0-1.6,0-3.2,0-4.8,0-11.89,0-23.79,0-35.68,0-.6,0-1.2,0-1.8,0-.8,0-1.6,0-2.4,0-.6,0-1.2,0-1.8,0-.6,0-1.2,0-1.8,0-.5,0-1,0-1.5,0-.8,0-1.6,0-2.4,0-.7,0-1.4,0-2.1,0-13.14,0-26.29,0-39.44l1.2-.44c0-4.99,0-10,0-14.99-.46-.13-1.14.41-1.2-.44-.43-6.41.02-13.73,0-20.25,0-.9,0-1.8,0-2.7,0-1,0-2,0-3,0-1.5,0-3,0-4.5,0-.7,0-1.4,0-2.1,0-.5,0-1,0-1.5.01-4.98-.33-10.56,0-15.45.06-.85.74-.31,1.2-.44-.02-1.59.07-3.21,0-4.8.11-.28.11-.58,0-.9,0-.1.01-.2,0-.3-.63-2.89-2.6-5.11-5.1-6.6-.19-.1-.61-.18-.9-.3l-.6-.3c-.09-.03-.2.02-.3,0l-.6-.3c-.2-.02-.4.01-.6,0H0v1.49h201.06Z"/>
  <path class="cls-47" d="M210.2,13.5c.07,5.29-.02,10.6,0,15.89,0,.5,0,1,0,1.5,0,.7,0,1.4,0,2.1,0,1.5,0,3,0,4.5,0,1,0,2,0,3,0,.9,0,1.8,0,2.7.01,6.89,0,13.8,0,20.69.23,4.99.23,10,0,14.99,0,13.29,0,26.59,0,39.88,0,.7,0,1.4,0,2.1,0,.8,0,1.6,0,2.4,0,.5,0,1,0,1.5,0,.6,0,1.2,0,1.8,0,.6,0,1.2,0,1.8,0,.8,0,1.6,0,2.4,0,.6,0,1.2,0,1.8,0,11.89,0,23.79,0,35.68v115.44c.1,0,.2,0,.3,0V8.7c-.11-.26-.21-.26-.3,0,.28,1.55.24,3.24,0,4.8Z"/>
  <path class="cls-47" d="M210.2,63.88c0,4.99,0,10,0,14.99.23-4.99.23-10,0-14.99Z"/>
  <path class="cls-47" d="M210.2,13.5c.24-1.55.28-3.25,0-4.8.07,1.59-.02,3.21,0,4.8Z"/>
  <path class="cls-24" d="M210.2,180.82h-1.2c.92,27.47.95,54.99,0,82.46h1.2c-.59-27.48-.59-54.97,0-82.46Z"/>
  <path class="cls-24" d="M209,180.82c0,27.48.06,54.98,0,82.46.95-27.47.92-54.99,0-82.46Z"/>
  <path class="cls-24" d="M210.2,263.28v-82.46c-.59,27.48-.59,54.97,0,82.46Z"/>
  <path class="cls-24" d="M210.2,78.87c-.05.61-.6,1.19-.73.63.28,13.09.21,26.17-.47,39.25h1.2c-.75-13.29-.74-26.59,0-39.88Z"/>
  <path class="cls-24" d="M209.47,79.5c.14.56.68-.02.73-.63l-1.2.44c0,13.15.01,26.3,0,39.44.67-13.07.75-26.16.47-39.25Z"/>
  <path class="cls-24" d="M210.2,118.75c0-13.29,0-26.59,0-39.88-.74,13.29-.75,26.59,0,39.88Z"/>
  <path class="cls-51" d="M210.2,132.54h-1.2c.59,11.89.59,23.79,0,35.68h1.2c-.59-11.89-.59-23.79,0-35.68Z"/>
  <path class="cls-51" d="M209,132.54c0,11.89,0,23.79,0,35.68.59-11.89.59-23.79,0-35.68Z"/>
  <path class="cls-51" d="M210.2,168.22c0-11.89,0-23.79,0-35.68-.59,11.89-.59,23.79,0,35.68Z"/>
  <path class="cls-24" d="M210.2,43.19h-1.2l.4.76c.04,6.22.09,12.46.15,18.71.09.4.31.81.65,1.22-.75-6.89-.74-13.8,0-20.69Z"/>
  <path class="cls-24" d="M209.4,43.94l-.4-.76c.01,6.52-.44,13.84,0,20.25.06.85.74.31,1.2.44-.34-.41-.56-.82-.65-1.22-.06-6.26-.11-12.49-.15-18.71Z"/>
  <path class="cls-24" d="M210.2,63.88c0-6.89.01-13.8,0-20.69-.74,6.89-.75,13.8,0,20.69Z"/>
  <path class="cls-46" d="M210.2,13.5c-.32.4-.54.78-.64,1.15-.02,4.71-.07,9.4-.16,14.06l-.4.69h1.2c-.95-5.18-.88-10.7,0-15.89Z"/>
  <path class="cls-46" d="M209.56,14.65c.11-.37.32-.75.64-1.15-.46.13-1.14-.41-1.2.44-.33,4.9.02,10.47,0,15.45l.4-.69c.09-4.67.14-9.35.16-14.06Z"/>
  <path class="cls-46" d="M210.2,29.39c-.02-5.29.07-10.6,0-15.89-.88,5.19-.95,10.71,0,15.89Z"/>
  <path class="cls-29" d="M209.07,180.48c.1-.23.3-.32.51-.3-.11-1.39-.1-4.05.02-5.24l.6-.42h-1.2c.56,1.98.57,3.98.07,5.96Z"/>
  <path class="cls-29" d="M209,174.52c0,2.09,0,4.2,0,6.3,0-.13.03-.24.07-.33.5-1.98.49-3.98-.07-5.96Z"/>
  <path class="cls-29" d="M209.58,180.18c.26.03.53.24.62.63v-6.3l-.6.42c-.12,1.19-.13,3.85-.02,5.24Z"/>
  <path class="cls-29" d="M209.6,180.48c0-.09-.02-.2-.02-.3-.21-.02-.41.07-.51.3-.03.11-.04.22-.07.33h1.2c-.23-.06-.58-.16-.6-.34Z"/>
  <path class="cls-29" d="M209,180.82c.03-.11.04-.22.07-.33-.04.09-.07.2-.07.33Z"/>
  <path class="cls-29" d="M209.58,180.18c0,.1.01.21.02.3.02.18.37.28.6.34-.09-.39-.36-.6-.62-.63Z"/>
  <path class="cls-6" d="M209.6,268.2c.13-.23.36-.35.6-.43h-1.2c.27.65.44,1.3.51,1.95,0-.8.04-1.44.09-1.52Z"/>
  <path class="cls-6" d="M209.54,270.89c-.05.76-.22,1.52-.54,2.28h1.2c-.42.11-.6-1.05-.66-2.28Z"/>
  <path class="cls-6" d="M209.51,269.72c-.08-.65-.24-1.3-.51-1.95,0,1.79,0,3.6,0,5.4.32-.77.49-1.52.54-2.28-.02-.4-.03-.8-.03-1.16Z"/>
  <path class="cls-6" d="M209.6,268.2c-.04.08-.09.73-.09,1.52.05.39.05.78.03,1.16.06,1.23.25,2.4.66,2.28v-5.4c-.24.08-.47.2-.6.43Z"/>
  <path class="cls-6" d="M209.51,269.72c0,.37,0,.77.03,1.16.02-.39.02-.78-.03-1.16Z"/>
  <path class="cls-35" d="M209.76,168.85c-.3.05-.65-.16-.76-.63.59,1.59.59,3.21,0,4.8h1.2c-.8-.4-.92-2.92-.44-4.17Z"/>
  <path class="cls-35" d="M209,168.22c0,1.6,0,3.2,0,4.8.59-1.59.59-3.21,0-4.8Z"/>
  <path class="cls-35" d="M209.76,168.85c-.48,1.25-.36,3.77.44,4.17v-4.8c0,.39-.2.59-.44.63Z"/>
  <path class="cls-35" d="M209.76,168.85c.11-.29.26-.52.44-.63h-1.2c.11.47.47.68.76.63Z"/>
  <path class="cls-35" d="M209.76,168.85c.24-.04.44-.24.44-.63-.18.11-.32.33-.44.63Z"/>
  <path class="cls-28" d="M210.2,32.99h-1.2c.59,1.49.59,3.01,0,4.5h1.2c-.59-1.49-.59-3.01,0-4.5Z"/>
  <path class="cls-28" d="M209,32.99c0,1.5,0,3,0,4.5.59-1.49.59-3.01,0-4.5Z"/>
  <path class="cls-28" d="M210.2,37.49c0-1.5,0-3,0-4.5-.59,1.49-.59,3.01,0,4.5Z"/>
  <path class="cls-26" d="M209.66,263.92c-.19,0-.39-.12-.52-.33.41.89.39,1.8-.14,2.68h1.2c-.68-.12-.84-1.51-.54-2.36Z"/>
  <path class="cls-26" d="M209.14,263.59c-.06-.09-.11-.19-.14-.32,0,1,0,2,0,3,.53-.88.55-1.79.14-2.68Z"/>
  <path class="cls-26" d="M209.66,263.92c-.3.85-.14,2.23.54,2.36v-3c0,.44-.26.65-.54.64Z"/>
  <path class="cls-26" d="M209.66,263.92c.11-.32.29-.57.54-.64h-1.2c.06.11.09.21.14.32.14.21.33.32.52.33Z"/>
  <path class="cls-26" d="M209,263.28c.03.13.08.23.14.32-.05-.11-.08-.21-.14-.32Z"/>
  <path class="cls-26" d="M209.66,263.92c.28,0,.54-.2.54-.64-.25.07-.42.32-.54.64Z"/>
  <path class="cls-45" d="M209.96,38.04c-.24.17-.6.09-.82-.23.41.89.39,1.8-.14,2.68h1.2c-.48-.81-.55-1.64-.24-2.45Z"/>
  <path class="cls-45" d="M209.14,37.8c-.06-.09-.11-.19-.14-.32,0,1,0,2,0,3,.53-.88.55-1.79.14-2.68Z"/>
  <path class="cls-45" d="M209.96,38.04c-.31.82-.24,1.64.24,2.45,0-1,0-2,0-3,0,.27-.1.45-.24.55Z"/>
  <path class="cls-45" d="M209.96,38.04c.07-.18.13-.37.24-.55h-1.2c.06.1.09.21.14.32.21.32.58.4.82.23Z"/>
  <path class="cls-45" d="M209,37.49c.03.13.08.23.14.32-.05-.11-.08-.21-.14-.32Z"/>
  <path class="cls-45" d="M210.2,37.49c-.11.18-.17.36-.24.55.14-.1.24-.27.24-.55Z"/>
  <path class="cls-27" d="M209.92,41.06c-.23.13-.53.05-.73-.21.28.58.32,1.17.1,1.76.23-.13.53-.05.73.21-.28-.58-.32-1.17-.1-1.75Z"/>
  <path class="cls-27" d="M209.28,42.61c.22-.58.18-1.17-.1-1.76-.08-.1-.15-.22-.18-.37,0,.9,0,1.8,0,2.7,0-.3.12-.49.28-.58Z"/>
  <path class="cls-27" d="M209.92,41.06c-.22.58-.18,1.17.1,1.75.08.1.15.22.18.37,0-.9,0-1.8,0-2.7,0,.3-.12.49-.28.58Z"/>
  <path class="cls-27" d="M210.02,42.82c-.2-.26-.51-.33-.73-.21-.07.19-.16.39-.28.58h1.2c-.08-.12-.12-.24-.18-.37Z"/>
  <path class="cls-27" d="M209,43.19c.13-.19.21-.38.28-.58-.16.09-.28.28-.28.58Z"/>
  <path class="cls-27" d="M210.2,43.19c-.04-.15-.1-.27-.18-.37.06.12.1.25.18.37Z"/>
  <path class="cls-27" d="M209.92,41.06c.07-.19.16-.39.28-.58h-1.2c.08.12.12.24.18.37.2.26.51.33.73.21Z"/>
  <path class="cls-27" d="M209,40.49c.04.15.1.27.18.37-.06-.12-.1-.25-.18-.37Z"/>
  <path class="cls-27" d="M210.2,40.49c-.13.19-.21.38-.28.58.16-.09.28-.28.28-.58Z"/>
  <path class="cls-3" d="M210.2,128.34h-1.2c.59.79.59,1.61,0,2.4h1.2c-.59-.79-.59-1.61,0-2.4Z"/>
  <path class="cls-3" d="M209,128.34c0,.8,0,1.6,0,2.4.59-.79.59-1.61,0-2.4Z"/>
  <path class="cls-3" d="M210.2,130.74c0-.8,0-1.6,0-2.4-.59.79-.59,1.61,0,2.4Z"/>
  <path class="cls-54" d="M210.2,120.85h-1.2c.59.79.59,1.61,0,2.4h1.2c-.59-.79-.59-1.61,0-2.4Z"/>
  <path class="cls-54" d="M209,120.85c0,.8,0,1.6,0,2.4.59-.79.59-1.61,0-2.4Z"/>
  <path class="cls-54" d="M210.2,123.25c0-.8,0-1.6,0-2.4-.59.79-.59,1.61,0,2.4Z"/>
  <path class="cls-32" d="M209.35,32.38c.17-.06.36-.02.52.1-.23-.53-.12-1.07.33-1.59h-1.2c.42.49.52.99.35,1.49Z"/>
  <path class="cls-32" d="M209.35,32.38c.17-.5.07-1-.35-1.49,0,.7,0,1.4,0,2.1,0-.34.15-.54.35-.61Z"/>
  <path class="cls-32" d="M209.87,32.48c.15.11.27.27.33.51,0-.7,0-1.4,0-2.1-.44.52-.55,1.06-.33,1.59Z"/>
  <path class="cls-32" d="M209.87,32.48c-.17-.12-.36-.16-.52-.1-.07.21-.18.41-.35.61h1.2c-.14-.17-.25-.34-.33-.51Z"/>
  <path class="cls-32" d="M209,32.99c.17-.2.28-.41.35-.61-.2.07-.35.27-.35.61Z"/>
  <path class="cls-32" d="M209.87,32.48c.07.17.18.34.33.51-.06-.24-.18-.41-.33-.51Z"/>
  <path class="cls-16" d="M209.85,119.36c-.17.06-.36.02-.53-.1.14.32.14.65.02.98.17-.06.36-.02.53.1-.14-.32-.14-.65-.02-.98Z"/>
  <path class="cls-16" d="M209.35,120.24c.11-.32.11-.65-.02-.98-.14-.11-.27-.27-.32-.51,0,.7,0,1.4,0,2.1,0-.34.15-.54.35-.61Z"/>
  <path class="cls-16" d="M209.85,119.36c-.11.32-.11.65.02.98.15.11.27.27.33.51,0-.7,0-1.4,0-2.1,0,.34-.15.54-.35.61Z"/>
  <path class="cls-16" d="M209.85,119.36c.07-.21.18-.41.35-.61h-1.2c.14.17.25.34.32.51.17.12.36.16.53.1Z"/>
  <path class="cls-16" d="M209.32,119.26c-.07-.17-.18-.34-.32-.51.06.24.18.41.32.51Z"/>
  <path class="cls-16" d="M210.2,118.75c-.17.2-.28.41-.35.61.2-.07.35-.27.35-.61Z"/>
  <path class="cls-16" d="M209.87,120.33c-.17-.12-.36-.16-.53-.1-.07.21-.18.41-.35.61h1.2c-.14-.17-.25-.34-.33-.51Z"/>
  <path class="cls-16" d="M209,120.85c.17-.2.28-.41.35-.61-.2.07-.35.27-.35.61Z"/>
  <path class="cls-16" d="M209.87,120.33c.07.17.18.34.33.51-.06-.24-.18-.41-.33-.51Z"/>
  <path class="cls-17" d="M209.83,131.36c-.15.05-.32.02-.48-.09.09.22.09.44.02.66.15-.05.32-.02.48.09-.09-.22-.09-.44-.02-.66Z"/>
  <path class="cls-17" d="M209.37,131.93c.07-.22.07-.44-.02-.66-.16-.1-.29-.28-.35-.53,0,.6,0,1.2,0,1.8,0-.35.16-.55.37-.62Z"/>
  <path class="cls-17" d="M209.83,131.36c-.07.22-.07.44.02.66.16.1.29.28.35.53,0-.6,0-1.2,0-1.8,0,.35-.16.55-.37.62Z"/>
  <path class="cls-17" d="M209.85,132.01c-.15-.1-.33-.13-.48-.09-.06.21-.17.41-.37.62h1.2c-.17-.17-.28-.35-.35-.53Z"/>
  <path class="cls-17" d="M209,132.54c.2-.2.31-.41.37-.62-.21.06-.37.26-.37.62Z"/>
  <path class="cls-17" d="M209.85,132.01c.07.18.18.36.35.53-.06-.25-.19-.42-.35-.53Z"/>
  <path class="cls-17" d="M209.83,131.36c.06-.21.17-.41.37-.62h-1.2c.17.17.28.35.35.53.15.1.33.13.48.09Z"/>
  <path class="cls-17" d="M209.35,131.27c-.07-.18-.18-.36-.35-.53.06.25.19.42.35.53Z"/>
  <path class="cls-17" d="M210.2,130.74c-.2.2-.31.41-.37.62.21-.06.37-.26.37-.62Z"/>
  <path class="cls-25" d="M209.6,273.8c-.09-.01-.17-.05-.25-.1.17.43.06.86-.35,1.27h1.2c-.57.07-.76-.62-.6-1.17Z"/>
  <path class="cls-25" d="M209.35,273.7c-.16-.1-.29-.28-.35-.53,0,.6,0,1.2,0,1.8.42-.41.52-.85.35-1.27Z"/>
  <path class="cls-25" d="M209.6,273.8c-.17.55.02,1.24.6,1.17v-1.8c0,.48-.3.67-.6.63Z"/>
  <path class="cls-25" d="M209.6,273.8c.09-.31.29-.57.6-.63h-1.2c.17.17.28.35.35.53.08.05.17.09.25.1Z"/>
  <path class="cls-25" d="M209.35,273.7c-.07-.18-.18-.36-.35-.53.06.25.19.42.35.53Z"/>
  <path class="cls-25" d="M209.6,273.8c.3.04.6-.15.6-.63-.31.06-.5.32-.6.63Z"/>
  <path class="cls-18" d="M209.6,275.6c-.09-.01-.17-.05-.25-.1.09.22.09.44.02.66.06-.02.12-.03.19-.02-.02-.17,0-.36.04-.53Z"/>
  <path class="cls-18" d="M209.37,276.15c.07-.22.07-.44-.02-.66-.16-.1-.29-.27-.35-.53,0,.6,0,1.2,0,1.8,0-.35.16-.55.37-.62Z"/>
  <path class="cls-18" d="M209.6,275.6c-.05.17-.06.36-.04.53.27.02.55.23.64.64v-1.8c0,.48-.3.67-.6.63Z"/>
  <path class="cls-18" d="M209.6,275.6c.09-.31.29-.57.6-.63h-1.2c.17.17.28.35.35.53.08.05.17.09.25.1Z"/>
  <path class="cls-18" d="M209.35,275.5c-.07-.18-.18-.35-.35-.53.06.25.19.42.35.53Z"/>
  <path class="cls-18" d="M209.6,275.6c.3.04.6-.15.6-.63-.31.06-.5.32-.6.63Z"/>
  <path class="cls-28" d="M210.2,124.74h-1.2c.59.58.59,1.22,0,1.8h1.2c-.59-.58-.59-1.21,0-1.8Z"/>
  <path class="cls-28" d="M209,124.74c0,.6,0,1.2,0,1.8.59-.58.59-1.21,0-1.8Z"/>
  <path class="cls-28" d="M210.2,126.54c0-.6,0-1.2,0-1.8-.59.58-.59,1.22,0,1.8Z"/>
  <path class="cls-6" d="M209.83,127.16c-.15.05-.32.02-.48-.09.09.22.09.44.02.66.15-.05.32-.02.48.09-.09-.22-.09-.44-.02-.66Z"/>
  <path class="cls-6" d="M209.37,127.73c.07-.22.07-.44-.02-.66-.16-.1-.29-.28-.35-.53,0,.6,0,1.2,0,1.8,0-.35.16-.55.37-.62Z"/>
  <path class="cls-6" d="M209.83,127.16c-.07.22-.07.44.02.66.16.1.29.28.35.53,0-.6,0-1.2,0-1.8,0,.35-.16.55-.37.62Z"/>
  <path class="cls-6" d="M209.85,127.81c-.15-.1-.33-.13-.48-.09-.06.21-.17.41-.37.62h1.2c-.17-.17-.28-.35-.35-.53Z"/>
  <path class="cls-6" d="M209,128.34c.2-.2.31-.41.37-.62-.21.06-.37.26-.37.62Z"/>
  <path class="cls-6" d="M209.85,127.81c.07.18.18.36.35.53-.06-.25-.19-.42-.35-.53Z"/>
  <path class="cls-6" d="M209.83,127.16c.06-.21.17-.41.37-.62h-1.2c.17.17.28.35.35.53.15.1.33.13.48.09Z"/>
  <path class="cls-6" d="M209.35,127.07c-.07-.18-.18-.36-.35-.53.06.25.19.42.35.53Z"/>
  <path class="cls-6" d="M210.2,126.54c-.2.2-.31.41-.37.62.21-.06.37-.26.37-.62Z"/>
  <path class="cls-34" d="M209.58,266.9c-.07-.01-.14-.04-.2-.08.03.11.04.22.02.33.05-.01.1-.02.16-.02,0-.08,0-.16.02-.24Z"/>
  <path class="cls-34" d="M209.4,267.15c.02-.11.01-.22-.02-.33-.17-.1-.32-.28-.38-.55,0,.5,0,1,0,1.5,0-.37.18-.57.4-.62Z"/>
  <path class="cls-34" d="M209.58,266.9c-.02.08-.03.16-.02.24.27.02.54.23.64.64v-1.5c0,.49-.31.68-.62.63Z"/>
  <path class="cls-34" d="M209.56,267.14c-.06,0-.11,0-.16.02-.04.21-.16.42-.4.62h1.2c-.42-.01-.62-.31-.64-.64Z"/>
  <path class="cls-34" d="M209,267.77c.24-.2.36-.41.4-.62-.22.05-.4.25-.4.62Z"/>
  <path class="cls-34" d="M209.56,267.14c.02.33.22.63.64.64-.09-.4-.37-.61-.64-.64Z"/>
  <path class="cls-34" d="M209.58,266.9c.07-.29.27-.56.62-.63h-1.2c.21.18.32.36.38.55.07.04.13.07.2.08Z"/>
  <path class="cls-34" d="M209.38,266.82c-.06-.19-.17-.37-.38-.55.06.27.21.45.38.55Z"/>
  <path class="cls-34" d="M209.58,266.9c.31.06.61-.14.62-.63-.34.07-.55.34-.62.63Z"/>
  <path class="cls-6" d="M209.8,123.87c-.14.03-.28,0-.42-.07.03.11.04.22.02.33.14-.03.28,0,.42.07-.03-.11-.04-.22-.02-.33Z"/>
  <path class="cls-6" d="M209.4,124.12c.02-.11.01-.22-.02-.33-.17-.1-.32-.28-.38-.55,0,.5,0,1,0,1.5,0-.37.18-.57.4-.62Z"/>
  <path class="cls-6" d="M209.8,123.87c-.02.11-.01.22.02.33.17.1.32.28.38.55,0-.5,0-1,0-1.5,0,.37-.18.57-.4.62Z"/>
  <path class="cls-6" d="M209.8,123.87c.04-.21.16-.42.4-.62h-1.2c.21.18.32.36.38.55.14.08.28.11.42.07Z"/>
  <path class="cls-6" d="M209.38,123.79c-.06-.19-.17-.37-.38-.55.06.27.21.45.38.55Z"/>
  <path class="cls-6" d="M210.2,123.25c-.24.2-.36.41-.4.62.22-.05.4-.25.4-.62Z"/>
  <path class="cls-6" d="M209.82,124.2c-.14-.08-.28-.11-.42-.07-.04.21-.16.42-.4.62h1.2c-.21-.18-.32-.36-.38-.55Z"/>
  <path class="cls-6" d="M209,124.74c.24-.2.36-.41.4-.62-.22.05-.4.25-.4.62Z"/>
  <path class="cls-6" d="M209.82,124.2c.06.19.17.37.38.55-.06-.27-.21-.45-.38-.55Z"/>
  <path class="cls-16" d="M209.8,30.01c-.14.03-.28,0-.42-.07.03.11.04.22.02.33.14-.03.28,0,.42.07-.03-.11-.04-.22-.02-.33Z"/>
  <path class="cls-16" d="M209.4,30.27c.02-.11.01-.22-.02-.33-.17-.1-.32-.28-.38-.55,0,.5,0,1,0,1.5,0-.37.18-.57.4-.62Z"/>
  <path class="cls-16" d="M209.8,30.01c-.02.11-.01.22.02.33.17.1.32.28.38.55,0-.5,0-1,0-1.5,0,.37-.18.57-.4.62Z"/>
  <path class="cls-16" d="M209.8,30.01c.04-.21.16-.42.4-.62h-1.2c.21.18.32.36.38.55.14.08.28.11.42.07Z"/>
  <path class="cls-16" d="M209.38,29.94c-.06-.19-.17-.37-.38-.55.06.27.21.45.38.55Z"/>
  <path class="cls-16" d="M210.2,29.39c-.24.2-.36.41-.4.62.22-.05.4-.25.4-.62Z"/>
  <path class="cls-16" d="M209.82,30.34c-.14-.08-.28-.11-.42-.07-.04.21-.16.42-.4.62h1.2c-.22-.18-.32-.36-.38-.55Z"/>
  <path class="cls-16" d="M209,30.89c.24-.2.36-.41.4-.62-.22.05-.4.25-.4.62Z"/>
  <path class="cls-16" d="M209.82,30.34c.06.19.17.37.38.55-.06-.27-.21-.45-.38-.55Z"/>
  <path class="cls-30" d="M209.56,173.88c0-.08,0-.16.02-.24-.25-.05-.5-.25-.58-.63v1.5c0-.46.27-.66.56-.64Z"/>
  <path class="cls-30" d="M209.64,173.66c0,.08,0,.16-.02.24.25.05.5.25.58.63v-1.5c0,.46-.27.66-.56.64Z"/>
  <path class="cls-30" d="M209.64,173.66s-.04,0-.05-.01c-.02.08-.03.16-.02.24.02,0,.04,0,.05.01.02-.08.03-.16.02-.24Z"/>
  <path class="cls-30" d="M209.58,174.02c-.09.24-.29.44-.58.5h1.2c-.36,0-.56-.23-.62-.5Z"/>
  <path class="cls-30" d="M209.58,174.02s-.02-.09-.02-.14c-.29-.02-.56.18-.56.64.29-.06.49-.26.58-.5Z"/>
  <path class="cls-30" d="M209.62,173.89s-.02.08-.04.12c.06.27.26.49.62.5-.09-.38-.34-.58-.58-.63Z"/>
  <path class="cls-30" d="M209.56,173.88s0,.09.02.14c.02-.04.03-.08.04-.12-.02,0-.04,0-.05-.01Z"/>
  <path class="cls-30" d="M209.62,173.52c.09-.24.29-.44.58-.5h-1.2c.36,0,.56.23.62.5Z"/>
  <path class="cls-30" d="M209.58,173.65s.02-.08.04-.12c-.06-.27-.26-.49-.62-.5.09.38.34.58.58.63Z"/>
  <path class="cls-30" d="M209.62,173.52s.02.09.02.14c.29.02.56-.18.56-.64-.29.06-.49.26-.58.5Z"/>
  <path class="cls-30" d="M209.62,173.52s-.03.08-.04.12c.02,0,.04,0,.05.01,0-.05,0-.09-.02-.14Z"/>
  <path d="M208.11,8.88c-.36-3.67-3.42-6.53-7.08-6.78H0v5.83c2.77.65,3.28,5.25,0,5.83v6.04c65.82,0,131.64.01,197.47-.02.31-.07,1.03.22,1.03.47v247.08l-198.5.22v16.03c6.41,0,12.81.02,19.22.08h19.68c.8,0,1.61,0,2.4,0h167.4l-.6-.29V8.88Z"/>
  <path d="M201.03,2.09c3.66.25,6.73,3.12,7.08,6.78v274.5s.59.29.59.29V8.84c-.35-3.97-3.69-7.09-7.64-7.35H0v.6h201.03Z"/>
  <path class="cls-43" d="M208.83,283.75s.03-.04.04-.06c-.06,0-.12,0-.17-.02-8.56.04-17.12.07-25.68.1,8.6,0,17.22-.01,25.8-.02Z"/>
  <path class="cls-43" d="M41.3,283.67v.3c21.09-.05,42.11-.08,63.08-.12-21.03-.03-42.05-.08-63.08-.18Z"/>
  <path class="cls-43" d="M209.6,277.2l.6-.43h-1.2l.6.51s0-.06,0-.08Z"/>
  <path class="cls-43" d="M209.58,283.09c-.11-1.44-.1-4.49.01-5.81l-.6-.51c-.01,1.95.24,4.63,0,6.46-.03.24-.01.45-.31.43.05.02.11.02.17.02.23-.36.48-.59.72-.59Z"/>
  <path class="cls-43" d="M209.6,277.28h0c.07.67.16,4.58.04,5.82.19.03.38.2.55.57v-6.9l-.6.43s0,.06,0,.08Z"/>
  <path class="cls-43" d="M209.6,277.29h0c-.11,1.32-.12,4.37-.01,5.81.02,0,.04,0,.06,0,.11-1.23.02-5.14-.04-5.81Z"/>
  <path class="cls-43" d="M209.56,276.13c-.07,0-.13,0-.19.02-.06.21-.17.41-.37.62h1.2c-.39.05-.6-.26-.64-.64Z"/>
  <path class="cls-43" d="M209,276.77c.2-.2.31-.41.37-.62-.21.06-.37.26-.37.62Z"/>
  <path class="cls-43" d="M209.56,276.13c.04.38.25.69.64.64-.09-.4-.37-.62-.64-.64Z"/>
  <path class="cls-43" d="M104.38,283.85c26.3-.04,52.52-.07,78.64-.09,8.56-.03,17.12-.05,25.68-.1H41.3c21.03.11,42.06.16,63.08.18Z"/>
  <path class="cls-4" d="M0,7.93v5.83c3.28-.58,2.77-5.18,0-5.83Z"/>
  <path class="cls-22" d="M38,283.97c.18-.18.49-.22.72-.12-.02-.06.03-.12.18-.18h-19.68c2.22.02,4.44.05,6.66.08,4.06.06,8.11.12,12.12.21Z"/>
  <path class="cls-53" d="M198.5,17.43c0-.25-.73-.54-1.03-.47-65.82.03-131.65.02-197.47.02v250.57l198.5-.23V17.43Z"/>
  <path class="cls-52" d="M256.82,295.13c-.33.11-.68.23-1.05.35.37-.11.72-.23,1.05-.35Z"/>
  <path class="cls-52" d="M257.32,293.73c-.83.57-17.57.13-20.12.13-5.59.01-11.21,0-16.8,0-8.39,0-16.81,0-25.2,0-10.89,0-21.81,0-32.7,0-20.99,0-42.01,0-63,0h-38.4c-20.36,0-40.73,0-61.1,0v3h246.95l.45.6c2.49-.61,9.66-2.2,11.4-3.6-.31-1-.62-9.76-.15-9.9.7-.2.43.64.45,1.05.12,2.94-.09,5.91,0,8.85l.3-10.19c-.22-.08-.86.02-1.2,0-.34.06-.54.16-.6.3-.2,1.4.38,9.3-.28,9.76Z"/>
  <path class="cls-7" d="M0,300.79c75.02-.09,150.04-.18,225.06-.02.66-.08,1.33-.16,2.01-.23,1.84-.19,3.62-.31,5.32-.38l4.5-.6c.9-.2,1.8-.4,2.7-.6H0v1.83Z"/>
  <path class="cls-7" d="M240.2,298.96h-.6c.19-.03.41.03.6,0Z"/>
  <path class="cls-7" d="M129.74,300.76l60.07.1c-20.02-.09-40.04-.11-60.07-.1Z"/>
  <path class="cls-55" d="M0,301.09v.11c43.25-.2,86.5-.41,129.74-.44l-17.82-.03c-37.31.19-74.62.29-111.92.36Z"/>
  <path class="cls-55" d="M225.07,300.92l-35.27-.06c11.75.05,23.51.11,35.26.21l5.24-.61c-.4,0-.8-.02-1.2,0l-4.03.46Z"/>
  <path class="cls-55" d="M229.1,300.46c-1.36.05-2.69.05-4.04.31-75.02-.16-150.04-.07-225.06.02v.3c37.31-.07,74.62-.17,111.92-.36l17.82.03c20.02-.01,40.04.01,60.07.1l35.27.06,4.03-.46Z"/>
  <path class="cls-55" d="M259.71,284.4c-.02-.34.12-.58-.31-.73.38,3.49.28,6.89-.3,10.19-.02.05-.24-.04-.3,0,.04.12.06.22.02.26-.32.32-1.05.67-2,1.01,1.33-.45,2.36-.86,2.58-1.12.29-.33.27-.49.31-.89.25-2.12.14-6.51,0-8.73Z"/>
  <path class="cls-55" d="M259.4,283.67l-.3,10.19c.58-3.3.68-6.7.3-10.19Z"/>
  <path class="cls-55" d="M258.8,293.86c-1.74,1.4-8.91,2.99-11.4,3.6,1.41-.26,5.46-1.08,8.38-1.98.36-.12.71-.23,1.05-.35.95-.34,1.68-.68,2-1.01.04-.04.02-.14-.02-.26Z"/>
  <path class="cls-55" d="M239.6,298.96c.18.3.54.34.6,0-.19.03-.41-.03-.6,0Z"/>
  <path class="cls-21" d="M210.2,283.67c-.88,0-1.64.31-2.54.31-55.45.21-110.91-.19-166.36-.01.13,1.21-.36,2.26-.9,3.3-.15.29-.4.63-.6.9-.35.47-.42.55-.9.9-.11.08-.2.25-.3.3-.08.04-.24-.05-.3,0-1.39,1.06-1.29.9-3,1.2-1.06.19-1.56.25-2.7.3-6.96.29-14.29-.02-21.3,0-3.76.01-7.53,0-11.3,0v2.55c20.37.07,40.74.15,61.1.15h38.4c20.99,0,42.01,0,63,0h32.7c7.84,0,15.71-.1,23.55,0,.51,0,1.33-.19,1.65.31,5.58-.83,11.22-.81,16.8,0l19.5-.3v-9.6c-15.14.25-30.32-.2-45.47.01l-.73-.31c-.06.27-.16.26-.3,0Z"/>
  <path class="cls-47" d="M210.5,283.67c-.1,0-.2,0-.3,0,.14.26.24.27.3,0Z"/>
  <path class="cls-15" d="M210.5,283.67c-.1,0-.2,0-.3,0,.14.26.24.27.3,0Z"/>
  <path class="cls-43" d="M209.61,283.35c-.01.06-.02.11-.04.12-.13.14-.46.23-.71.22-.01.02-.03.04-.04.06-8.59,0-17.2.01-25.8.02-26.21.09-52.43.12-78.64.09-20.98.03-41.99.07-63.08.12,55.45-.17,110.91.23,166.36.01.9,0,1.66-.31,2.54-.31-.22-.06-.54-.16-.59-.32Z"/>
  <path class="cls-14" d="M209.61,283.35c-.01.06-.02.11-.04.12-.13.14-.46.23-.71.22-.01.02-.03.04-.04.06-8.59,0-17.2.01-25.8.02-26.21.09-52.43.12-78.64.09-20.98.03-41.99.07-63.08.12,55.45-.17,110.91.23,166.36.01.9,0,1.66-.31,2.54-.31-.22-.06-.54-.16-.59-.32Z"/>
  <path class="cls-43" d="M209.57,283.47s.03-.06.04-.12c0,0-.01-.02-.01-.03,0-.06-.01-.15-.02-.23-.24,0-.49.23-.72.59.25.01.58-.08.71-.22Z"/>
  <path class="cls-13" d="M209.57,283.47s.03-.06.04-.12c0,0-.01-.02-.01-.03,0-.06-.01-.15-.02-.23-.24,0-.49.23-.72.59.25.01.58-.08.71-.22Z"/>
  <path class="cls-43" d="M209.65,283.1c0,.1-.02.19-.03.25.05.16.36.26.59.32-.18-.37-.36-.54-.55-.57Z"/>
  <path class="cls-10" d="M209.65,283.1c0,.1-.02.19-.03.25.05.16.36.26.59.32-.18-.37-.36-.54-.55-.57Z"/>
  <path class="cls-43" d="M209.61,283.35c.01-.06.02-.15.03-.25-.02,0-.04,0-.06,0,0,.07,0,.16.02.23,0,0,.01.02.01.03Z"/>
  <path class="cls-11" d="M209.61,283.35c.01-.06.02-.15.03-.25-.02,0-.04,0-.06,0,0,.07,0,.16.02.23,0,0,.01.02.01.03Z"/>
  <path class="cls-43" d="M183.02,283.76c-26.12.02-52.34.05-78.64.09,26.22.03,52.43,0,78.64-.09Z"/>
  <path class="cls-9" d="M183.02,283.76c-26.12.02-52.34.05-78.64.09,26.22.03,52.43,0,78.64-.09Z"/>
  <path class="cls-52" d="M220.4,293.86c5.59,0,11.21.01,16.8,0-5.58-.81-11.22-.83-16.8,0Z"/>
  <path class="cls-8" d="M220.4,293.86c5.59,0,11.21.01,16.8,0-5.58-.81-11.22-.83-16.8,0Z"/>
  <path class="cls-5" d="M0,297.46v.9h239.82l.38.6c1.26-.83,2.84-1.32,4.42-1.5-81.53,0-163.07,0-244.62,0Z"/>
  <path class="cls-5" d="M0,296.86v.6c81.55,0,163.09,0,244.62,0,.95-.11,1.89-.11,2.78,0l-.45-.6H0Z"/>
  <path class="cls-5" d="M0,298.36v.6h240.2l-.38-.6H0Z"/>
  <path class="cls-5" d="M240.2,298.96c2.45-.42,4.79-.91,7.2-1.5h-2.78c-1.58.18-3.16.67-4.42,1.5Z"/>
  <path class="cls-5" d="M244.62,297.46h2.78c-.89-.11-1.83-.11-2.78,0Z"/>
  <path class="cls-31" d="M0,293.57v.05c20.37.05,40.73.14,61.1.24v-.3c-20.45-.02-40.82-.02-61.1,0Z"/>
  <path class="cls-31" d="M0,293.62v.24c20.37,0,40.74,0,61.1,0-20.37-.1-40.73-.19-61.1-.24Z"/>
  <path class="cls-31" d="M61.1,293.56c-20.36,0-40.73-.08-61.1-.15v.16c20.28-.02,40.65-.02,61.1,0Z"/>
  <path class="cls-50" d="M162.5,293.86v-.3c-8.02.09-16.05.13-24.07.15,8.02.02,16.05.07,24.07.15Z"/>
  <path class="cls-50" d="M123.55,293.71c-8.02-.02-16.03-.06-24.05-.15v.3c8.02-.09,16.03-.13,24.05-.15Z"/>
  <path class="cls-50" d="M123.55,293.71c-8.02.02-16.03.06-24.05.15,20.99,0,42.01,0,63,0-8.02-.09-16.05-.13-24.07-.15-4.96.01-9.92.01-14.88,0Z"/>
  <path class="cls-50" d="M138.43,293.71c8.02-.02,16.05-.06,24.07-.15-20.99,0-42.01,0-63,0,8.02.08,16.03.13,24.05.15,4.96-.01,9.92-.01,14.88,0Z"/>
  <path class="cls-50" d="M138.43,293.71c-4.96-.01-9.92-.01-14.88,0,4.96.01,9.92.01,14.88,0Z"/>
  <path class="cls-2" d="M257.16,284.17c.05-.16.2-.22.44-.21-.3.02-.6,0-.9,0,.15,0,.29.02.4.09.02.01.04.06.06.12Z"/>
  <path class="cls-2" d="M256.72,293.69c-1.29.03-2.58.04-3.87.07,1.29-.03,2.58-.03,3.87-.07,0,0,0,0,0,0Z"/>
  <path class="cls-2" d="M257.14,290.47c-.08,1.4-.17,2.59-.24,3.08.14-.2.21-.56.25-.86v-2.22Z"/>
  <path class="cls-2" d="M257.16,284.17c.19.63.12,3.77-.02,6.29v2.22c-.04.3-.1.66-.24.86,0,.05-.02.11-.02.14-.05,0-.1,0-.15,0,0,0,0,0,0,0-1.29.03-2.58.04-3.87.07-5.22.1-10.44.15-15.66.1,2.55,0,19.29.44,20.12-.13.66-.46.08-8.36.28-9.76-.24-.01-.39.05-.44.21Z"/>
  <path class="cls-2" d="M237.2,293.86c5.22.05,10.44,0,15.66-.1,1.29-.03,2.58-.03,3.87-.07.07-.03.12-.08.17-.15.08-.49.17-1.68.24-3.08v-6.18s0-.08.02-.12c-.02-.06-.04-.11-.06-.12-.11-.07-.25-.09-.4-.09v9.6s-19.5.3-19.5.3Z"/>
  <path class="cls-2" d="M252.86,293.76c-5.22.1-10.44.15-15.66.1,5.22.05,10.44,0,15.66-.1Z"/>
  <path class="cls-2" d="M257.16,284.17s-.02.07-.02.12v6.18c.14-2.53.22-5.66.02-6.29Z"/>
  <path class="cls-2" d="M256.9,293.54c-.05.07-.1.12-.17.15.05,0,.1,0,.15,0,0-.03.02-.1.02-.14Z"/>
  <path class="cls-42" d="M61.1,293.86c3.22-.07,6.52-.12,9.84-.15-3.32-.03-6.61-.08-9.84-.15.26.09.26.19,0,.3Z"/>
  <path class="cls-42" d="M99.5,293.86c-.26-.09-.26-.19,0-.3-3.22.07-6.52.12-9.84.15,3.32.03,6.61.08,9.84.15Z"/>
  <path class="cls-42" d="M70.94,293.71c-3.32.03-6.61.08-9.84.15h38.4c-3.23-.07-6.52-.12-9.84-.15-6.2.06-12.5.06-18.72,0Z"/>
  <path class="cls-42" d="M89.66,293.71c3.32-.03,6.61-.08,9.84-.15h-38.4c3.23.07,6.52.12,9.84.15,6.2-.06,12.5-.06,18.72,0Z"/>
  <path class="cls-42" d="M89.66,293.71c-6.22-.06-12.53-.06-18.72,0,6.22.06,12.53.06,18.72,0Z"/>
  <path class="cls-42" d="M61.1,293.56v.3c.26-.11.26-.21,0-.3Z"/>
  <path class="cls-42" d="M99.5,293.86v-.3c-.26.11-.26.21,0,.3Z"/>
  <path class="cls-41" d="M162.5,293.86c3.23-.07,6.46-.11,9.69-.14-3.27-.03-6.51-.08-9.69-.16.26.09.26.19,0,.3Z"/>
  <path class="cls-41" d="M195.2,293.86v-.3c-3.15.08-6.38.13-9.65.16,3.22.03,6.43.07,9.65.14Z"/>
  <path class="cls-41" d="M172.19,293.72c-3.23.03-6.46.07-9.69.14,10.89,0,21.81,0,32.7,0-3.22-.07-6.43-.11-9.65-.14-4.43.04-8.92.04-13.36,0Z"/>
  <path class="cls-41" d="M185.55,293.72c3.26-.03,6.5-.08,9.65-.16h-32.7c3.17.08,6.42.13,9.69.16,4.45-.04,8.91-.04,13.36,0Z"/>
  <path class="cls-41" d="M185.55,293.72c-4.45-.04-8.91-.04-13.36,0,4.45.04,8.93.04,13.36,0Z"/>
  <path class="cls-41" d="M162.5,293.56v.3c.26-.11.26-.21,0-.3Z"/>
  <path class="cls-47" d="M195.2,293.86c4.35-.13,8.69-.19,13.04-.19-4.3-.05-8.64-.09-13.04-.11.26.09.26.19,0,.3Z"/>
  <path class="cls-47" d="M195.2,293.86c8.39,0,16.81,0,25.2,0-4.01-.08-8.06-.14-12.16-.19-4.35,0-8.69.06-13.04.19Z"/>
  <path class="cls-47" d="M220.4,293.86c-.31-.5-1.14-.3-1.65-.31-7.85-.1-15.71,0-23.55,0,4.4.02,8.74.06,13.04.11,4.05,0,8.11.06,12.16.19Z"/>
  <path class="cls-47" d="M220.4,293.86c-4.05-.13-8.11-.19-12.16-.19,4.1.05,8.15.11,12.16.19Z"/>
  <path class="cls-47" d="M195.2,293.56v.3c.26-.11.26-.21,0-.3Z"/>
  <path class="cls-20" d="M258.8,293.86c.08-.27.18-.26.3,0-.07-.93-.17-.93-.3,0Z"/>
  <path class="cls-20" d="M259.1,285.01c-.02-.4.25-1.25-.45-1.05-.48.14-.16,8.9.15,9.9.13-.93.23-.93.3,0-.09-2.94.12-5.91,0-8.85Z"/>
  <path class="cls-20" d="M258.8,293.86c.05-.04.28.05.3,0-.12-.26-.22-.27-.3,0Z"/>
  <path class="cls-12" d="M38,283.97c-4.04-.09-8.08-.16-12.12-.21-2.34-.03-4.69-.06-7.04-.08H0v6.9h35.3c.21-.79,2.21-1.34,3-1.2-.68-1.61-.12-3.68-.3-5.4Z"/>
  <path d="M18.84,283.67h.38c-6.41-.06-12.81-.09-19.22-.08v.02c6.29-.01,12.58,0,18.84.06Z"/>
  <path class="cls-36" d="M18.84,283.67h.38c-6.41-.06-12.81-.09-19.22-.08v.02c6.29-.01,12.58,0,18.84.06Z"/>
  <path class="cls-22" d="M25.88,283.75c-2.22-.03-4.44-.06-6.66-.08h-.38c2.35.02,4.7.05,7.04.08Z"/>
  <path class="cls-37" d="M25.88,283.75c-2.22-.03-4.44-.06-6.66-.08h-.38c2.35.02,4.7.05,7.04.08Z"/>
  <path class="cls-22" d="M0,283.6v.06h18.84c-6.26-.06-12.55-.07-18.84-.06Z"/>
  <path class="cls-38" d="M0,283.6v.06h18.84c-6.26-.06-12.55-.07-18.84-.06Z"/>
  <path class="cls-39" d="M35.3,290.56c1.71-.3,1.61-.13,3-1.2-.79-.14-2.79.41-3,1.2Z"/>
  <path class="cls-40" d="M35.3,290.56c1.71-.3,1.61-.13,3-1.2-.79-.14-2.79.41-3,1.2Z"/>
  <path class="cls-56" d="M39.5,283.97c-.2-.01-.4.01-.6,0-.3-.02-.6,0-.9,0l.63.38-.07,3.2c.2.7.15,1.24-.12,1.63.05,0,.11.05.17.19l.3-.3c-.3-.76.14-1.21.9-.9-.67-1.15-.14-2.87-.3-4.2Z"/>
  <path class="cls-56" d="M38.72,283.85c-.23-.1-.54-.06-.72.12.3,0,.6-.02.9,0-.11-.04-.16-.08-.18-.12Z"/>
  <path class="cls-56" d="M38.43,289.17c-.04.06-.08.13-.13.19.06-.05.22.04.3,0-.06-.14-.11-.2-.17-.19Z"/>
  <path class="cls-56" d="M38.9,289.06c.48-.35.55-.43.9-.9-.76-.31-1.2.14-.9.9Z"/>
  <path class="cls-56" d="M38.43,289.17c.27-.4.32-.94.12-1.63l.07-3.2-.63-.38c.18,1.72-.38,3.79.3,5.4.04-.12.09-.18.13-.19Z"/>
  <path class="cls-56" d="M38.3,289.36c.06-.06.09-.13.13-.19-.05,0-.09.07-.13.19Z"/>
  <path class="cls-44" d="M27.48,290.76c1.71.02,3.41.05,5.12.1v-.3c-1.67.1-3.39.16-5.12.2Z"/>
  <path class="cls-44" d="M11.3,290.56v.3c2.22-.06,4.44-.09,6.66-.11-2.25-.05-4.49-.11-6.66-.19Z"/>
  <path class="cls-44" d="M17.96,290.75c-2.22.02-4.44.05-6.66.11,7.01-.02,14.34.29,21.3,0-1.71-.04-3.41-.08-5.12-.1-3.14.07-6.35.05-9.52-.01Z"/>
  <path class="cls-44" d="M27.48,290.76c1.73-.04,3.45-.1,5.12-.2H11.3c2.18.08,4.41.14,6.66.19,3.17-.03,6.34-.03,9.52.01Z"/>
  <path class="cls-44" d="M17.96,290.75c3.17.06,6.38.08,9.52.01-3.17-.04-6.35-.04-9.52-.01Z"/>
  <path class="cls-49" d="M11.3,290.56c-2.01.08-4.09.14-6.18.17,2.06.03,4.12.07,6.18.13-.26-.09-.26-.19,0-.3Z"/>
  <path class="cls-49" d="M5.12,290.73c-1.7.03-3.41.04-5.12.03v.1c3.77,0,7.54.01,11.3,0-2.06-.07-4.12-.11-6.18-.13Z"/>
  <path class="cls-49" d="M0,290.56v.14c1.71,0,3.41,0,5.12.03,2.09-.03,4.17-.09,6.18-.17H0Z"/>
  <path class="cls-49" d="M0,290.7v.06c1.71,0,3.42,0,5.12-.03-1.71-.02-3.41-.03-5.12-.03Z"/>
  <path class="cls-49" d="M11.3,290.86v-.3c-.26.11-.26.21,0,.3Z"/>
  <path class="cls-23" d="M41.3,283.67c-.59.37-1.39.37-2.4,0v.3c.14-.26.37-.2.6,0,.2.01.4-.02.6,0,.27.35-.42,2.83.3,3.3-.1-1.38.2-2.48.9-3.3-.26-.09-.26-.19,0-.3Z"/>
  <path class="cls-23" d="M41.3,283.67c-.79,0-1.6,0-2.4,0,1.01.37,1.81.37,2.4,0Z"/>
  <path class="cls-23" d="M41.3,283.97v-.3c-.26.11-.26.21,0,.3Z"/>
  <path class="cls-23" d="M38.72,283.85c.07.03.13.06.18.12v-.3c-.15.07-.2.13-.18.18Z"/>
  <path class="cls-23" d="M40.4,287.26c.54-1.04,1.03-2.09.9-3.3-.7.82-1,1.91-.9,3.3Z"/>
  <path class="cls-23" d="M38.9,283.97c.2.01.4-.01.6,0-.23-.2-.46-.26-.6,0Z"/>
  <path class="cls-23" d="M38.9,283.97c-.05-.05-.11-.09-.18-.12.02.04.07.08.18.12Z"/>
  <path class="cls-22" d="M39.83,284.46s0,0,0,0c0,.08,0,.15,0,.23,0-.08,0-.16.01-.23Z"/>
  <path class="cls-22" d="M39.94,287.3h-.04c-.05-.34-.07-.69-.09-1.03,0,.42,0,.85,0,1.26.02-.1.07-.18.14-.23Z"/>
  <path class="cls-22" d="M39.8,287.53c0,.21,0,.43,0,.64.2-.27.45-.61.6-.9l-.46.03c-.07.05-.11.13-.14.23Z"/>
  <path class="cls-22" d="M39.8,287.53c0-.41,0-.84,0-1.26-.03-.52-.03-1.05,0-1.57,0-.08,0-.15,0-.23-.05-.02-.15-.17-.32-.5.16,1.33-.37,3.05.3,4.2-.03-.24-.04-.47,0-.64Z"/>
  <path class="cls-22" d="M39.8,288.16c0-.21,0-.43,0-.64-.04.17-.04.4,0,.64Z"/>
  <path class="cls-22" d="M40.1,283.96c-.2-.02-.4.01-.6,0l.32.13c0,.12,0,.24,0,.36,0,0,0,0,0,0,0-.07,0-.14,0-.21.03.15.02.21,0,.21,0,.08,0,.16-.01.23,0,.53,0,1.05,0,1.57.02.35.04.69.09,1.03h.04c.1-.08.24-.1.46-.04-.72-.47-.03-2.95-.3-3.3Z"/>
  <path class="cls-22" d="M39.84,284.25c0,.07,0,.14,0,.21.03,0,.04-.06,0-.21Z"/>
  <path class="cls-22" d="M39.94,287.3l.46-.03c-.22-.06-.36-.04-.46.03Z"/>
  <path class="cls-22" d="M39.82,284.46c0-.12,0-.24,0-.36l-.32-.13c.17.32.27.48.32.5Z"/>
  <path class="cls-22" d="M39.81,286.27c0-.52,0-1.04,0-1.57-.04.53-.04,1.05,0,1.57Z"/>
  <path class="cls-19" d="M32.6,290.56c.26.09.26.19,0,.3.36-.08.74-.14,1.12-.19-.38-.01-.76-.04-1.12-.11Z"/>
  <path class="cls-19" d="M33.72,290.67c-.38.05-.76.1-1.12.19,1.14-.05,1.64-.11,2.7-.3-.54.09-1.07.13-1.58.11Z"/>
  <path class="cls-19" d="M33.72,290.67c.51-.06,1.03-.11,1.58-.11h-2.7c.36.07.74.1,1.12.11Z"/>
  <path class="cls-19" d="M35.3,290.56c-.55,0-1.07.05-1.58.11.51.01,1.04-.02,1.58-.11Z"/>
  <path class="cls-19" d="M32.6,290.56v.3c.26-.11.26-.21,0-.3Z"/>
  <path class="cls-33" d="M38.9,289.06l-.3.3c.1-.05.19-.22.3-.3Z"/>
</svg>