<?xml version="1.0" encoding="UTF-8"?>
<svg id="Layer_1" data-name="Layer 1" xmlns="http://www.w3.org/2000/svg" xmlns:xlink="http://www.w3.org/1999/xlink" viewBox="0 0 520.83 301.56">
  <defs>
    <style>
      .cls-1 {
        fill: #494848;
      }

      .cls-2 {
        fill: #a9a9ae;
      }

      .cls-3 {
        fill: #5f5e5e;
      }

      .cls-4 {
        fill: #adaeb3;
      }

      .cls-5 {
        fill: #232323;
      }

      .cls-6 {
        fill: #76757a;
      }

      .cls-7 {
        fill: #707070;
      }

      .cls-8 {
        fill: #3f4f53;
      }

      .cls-9 {
        fill: #676868;
      }

      .cls-10 {
        fill: #626267;
      }

      .cls-11 {
        fill: url(#linear-gradient-3);
      }

      .cls-12 {
        fill: url(#linear-gradient-2);
      }

      .cls-13 {
        fill: #4c4d4d;
      }

      .cls-14 {
        fill: #4d4c4c;
      }

      .cls-15 {
        fill: #555454;
      }

      .cls-16 {
        fill: #454545;
      }

      .cls-17 {
        fill: #3e3f41;
      }

      .cls-18 {
        fill: #84858b;
      }

      .cls-19 {
        fill: #59585d;
      }

      .cls-20 {
        fill: url(#linear-gradient);
      }

      .cls-21 {
        fill: #8f9095;
      }

      .cls-22 {
        fill: #33393e;
      }

      .cls-23 {
        fill: #565555;
      }

      .cls-24 {
        fill: #575858;
      }

      .cls-25 {
        fill: #1d1d1b;
      }

      .cls-26 {
        fill: #24272c;
      }

      .cls-27 {
        fill: #3e3e3e;
      }

      .cls-28 {
        fill: #676666;
      }

      .cls-29 {
        fill: #5a5b5b;
      }

      .cls-30 {
        fill: #4d4d4d;
      }

      .cls-31 {
        fill: #525256;
      }

      .cls-32 {
        fill: #939297;
      }

      .cls-33 {
        fill: #3a3a3a;
      }

      .cls-34 {
        fill: #a4a4ab;
      }

      .cls-35 {
        fill: #757575;
      }

      .cls-36 {
        fill: #3d3d3d;
      }

      .cls-37 {
        fill: #4f4f4f;
      }

      .cls-38 {
        fill: #8a8a91;
      }

      .cls-39 {
        fill: #6f6f6f;
      }

      .cls-40 {
        fill: #a8a9af;
      }

      .cls-41 {
        fill: #626363;
      }

      .cls-42 {
        fill: #7d7e83;
      }

      .cls-43 {
        fill: #646464;
      }

      .cls-44 {
        fill: #4a4b4b;
      }

      .cls-45 {
        fill: #8a8b90;
      }

      .cls-46 {
        fill: #a1a1a6;
      }

      .cls-47 {
        fill: #8b8c91;
      }

      .cls-48 {
        fill: #a7a8ad;
      }

      .cls-49 {
        fill: #86858b;
      }

      .cls-50 {
        fill: #fefefe;
      }

      .cls-51 {
        fill: #4a4a4a;
      }

      .cls-52 {
        fill: #9f9fa7;
      }

      .cls-53 {
        fill: #626161;
      }

      .cls-54 {
        fill: #262d2f;
      }

      .cls-55 {
        fill: #424242;
      }

      .cls-56 {
        fill: #87888d;
      }

      .cls-57 {
        fill: #383636;
      }

      .cls-58 {
        fill: #ababb3;
      }

      .cls-59 {
        fill: #afafb4;
      }

      .cls-60 {
        fill: #97989d;
      }

      .cls-61 {
        fill: #484848;
      }

      .cls-62 {
        fill: #888;
      }

      .cls-63 {
        fill: #808185;
      }

      .cls-64 {
        fill: #616165;
      }

      .cls-65 {
        fill: #5d5e5e;
      }

      .cls-66 {
        fill: #fdfdfd;
      }

      .cls-67 {
        fill: #4b4b50;
      }
    </style>
    <linearGradient id="linear-gradient" x1="834.81" y1="1816.13" x2="2179.13" y2="3153.15" gradientTransform="translate(-14.76 -123.63) scale(.07)" gradientUnits="userSpaceOnUse">
      <stop offset="0" stop-color="#989898"/>
      <stop offset=".84" stop-color="#21211f"/>
      <stop offset="1" stop-color="#1d1d1b"/>
    </linearGradient>
    <linearGradient id="linear-gradient-2" x1="276.14" y1="5495.96" x2="7084.14" y2="5499.25" gradientTransform="translate(-14.76 -123.63) scale(.07)" gradientUnits="userSpaceOnUse">
      <stop offset="0" stop-color="#cccdd2"/>
      <stop offset=".02" stop-color="#cfd0d5"/>
      <stop offset=".08" stop-color="#87888d"/>
      <stop offset=".51" stop-color="#cbccd2"/>
      <stop offset=".93" stop-color="#86878c"/>
      <stop offset=".94" stop-color="#8c8d92"/>
      <stop offset=".98" stop-color="#cfd0d5"/>
      <stop offset="1" stop-color="#d3d4d9"/>
    </linearGradient>
    <linearGradient id="linear-gradient-3" x1="3162.94" y1="5480" x2="4162.94" y2="5480.69" gradientTransform="translate(-14.76 -123.63) scale(.07)" gradientUnits="userSpaceOnUse">
      <stop offset="0" stop-color="#77767c"/>
      <stop offset=".02" stop-color="#85848a"/>
      <stop offset=".52" stop-color="#acacb4"/>
      <stop offset=".75" stop-color="#8a8b91"/>
      <stop offset="1" stop-color="#7b7c81"/>
    </linearGradient>
  </defs>
  <path class="cls-57" d="M463.07,0c.2.01.4-.02.6,0l.6.3c.1.02.21-.03.3,0l.6.3c.29.11.71.2.9.3,2.5,1.49,4.47,3.71,5.1,6.6.01.1,0,.2,0,.3.11.32.11.62,0,.9.28,1.55.24,3.24,0,4.8-.32.4-.54.78-.64,1.15-.02,4.71-.07,9.4-.16,14.06l-.4.69c.59.48.59,1.02,0,1.5.59.69.59,1.41,0,2.1.59,1.49.59,3.01,0,4.5.59.99.59,2.01,0,3,.59.89.59,1.81,0,2.7l.4.76c.04,6.22.09,12.46.15,18.71.09.4.31.81.65,1.22.23,4.99.23,10,0,14.99-.05.61-.6,1.19-.73.63.28,13.09.21,26.17-.47,39.25.59.69.59,1.41,0,2.1.59.79.59,1.61,0,2.4.59.48.59,1.02,0,1.5.59.58.59,1.22,0,1.8.59.58.59,1.22,0,1.8.59.79.59,1.61,0,2.4.59.58.59,1.22,0,1.8.59,11.89.59,23.79,0,35.68.59,1.59.59,3.21,0,4.8.9.02.83,1.34,0,1.5.59,2.09.59,4.21,0,6.3.92,27.47.95,54.99,0,82.46.59.99.59,2.01,0,3,.59.48.59,1.02,0,1.5.74,1.82.75,3.58,0,5.4.59.58.59,1.22,0,1.8.59.59.59,1.22,0,1.8l.6.52c.08.78.19,5.96-.03,6.18-.16.17-.64.28-.87.2l-.6-.29V8.88c-.34-3.67-3.41-6.53-7.07-6.78H58.24c-1.33.14-2.61.69-3.7,1.45l-.67-.24c-2.01-.39.41-2.03,1.5-2.4-.06-.22.14-.42.6-.6.09-.03.2.02.3,0l.9-.3c.1-.01.2,0,.3,0h405.6Z"/>
  <path class="cls-56" d="M471.47,283.67c-.06.27-.16.26-.3,0-.23-.06-.58-.16-.6-.35-.12-1.35-.12-4.77,0-6.12l.6-.43c-.89.12-.86-1.63,0-1.8-.89.12-.86-1.63,0-1.8-.84.23-.73-4.73-.6-4.97s.36-.35.6-.43c-.9-.02-.83-1.34,0-1.5-.94-.17-.9-2.75,0-3-.59-27.48-.59-54.97,0-82.46-.23-.06-.58-.16-.6-.34-.13-1.28-.13-4.26,0-5.54l.6-.42c-.9-.02-.83-1.34,0-1.5-.98-.49-.94-4.22,0-4.8-.59-11.89-.59-23.79,0-35.68-.59-.58-.59-1.21,0-1.8-.59-.79-.59-1.61,0-2.4-.59-.58-.59-1.21,0-1.8-.59-.58-.59-1.21,0-1.8-.59-.48-.59-1.02,0-1.5-.59-.79-.59-1.61,0-2.4-.59-.69-.59-1.41,0-2.1-.75-13.29-.74-26.59,0-39.88,0-4.99,0-10,0-14.99-.75-6.89-.74-13.8,0-20.69-.59-.89-.59-1.81,0-2.7-.59-.99-.59-2.01,0-3-.59-1.49-.59-3.01,0-4.5-.59-.69-.59-1.41,0-2.1-.59-.48-.59-1.02,0-1.5-.95-5.18-.88-10.7,0-15.89-.02-1.59.07-3.21,0-4.8.09-.26.19-.26.3,0v274.96Z"/>
  <path class="cls-36" d="M55.37.91c-.97.76-2.24.91-1.5,2.4l.17.65c-1.18,1.19-2.18,2.73-2.55,4.37.24,7.76.04,15.48-.62,23.17-.09.26-.19.26-.3,0-.88.02-1.09-.28-1.2-1.2,0-7.11-.49-15.21,0-22.19,0-.1-.01-.2,0-.3l.3-.9c.03-.09-.03-.22,0-.3.93-2.46,3.07-5.32,5.7-5.7Z"/>
  <path class="cls-27" d="M471.17,180.82v82.46c0,.88-1,.84-1.2,0,.06-27.48,0-54.98,0-82.46,0-.88,1-.84,1.2,0Z"/>
  <path class="cls-27" d="M471.17,78.87c0,13.29,0,26.59,0,39.88,0,.88-1,.84-1.2,0,0-13.14,0-26.29,0-39.44l1.2-.44Z"/>
  <path class="cls-61" d="M471.17,132.54c0,11.89,0,23.79,0,35.68,0,.88-1,.84-1.2,0,0-11.89,0-23.79,0-35.68,0-.88,1-.84,1.2,0Z"/>
  <path class="cls-27" d="M471.17,43.19c.01,6.89,0,13.8,0,20.69-.46-.13-1.14.41-1.2-.44-.43-6.41.02-13.73,0-20.25,0-.88,1-.84,1.2,0Z"/>
  <path class="cls-55" d="M471.17,13.5c.07,5.29-.02,10.6,0,15.89,0,.88-1,.84-1.2,0,.01-4.98-.33-10.56,0-15.45.06-.85.74-.31,1.2-.44Z"/>
  <path class="cls-37" d="M471.17,174.52v6.3h-1.2c0-2.09,0-4.2,0-6.3,0-.88,1-.84,1.2,0Z"/>
  <path class="cls-7" d="M471.17,267.77v5.4c0,.88-1,.84-1.2,0,0-1.79,0-3.6,0-5.4,0-.88,1-.84,1.2,0Z"/>
  <path class="cls-44" d="M471.17,168.22v4.8c0,.88-1,.84-1.2,0,0-1.6,0-3.2,0-4.8h1.2Z"/>
  <path class="cls-35" d="M471.17,32.99c0,1.5,0,3,0,4.5,0,.88-1,.84-1.2,0,0-1.5,0-3,0-4.5,0-.88,1-.84,1.2,0Z"/>
  <path class="cls-29" d="M471.17,263.28v3c0,.88-1,.84-1.2,0,0-1,0-2,0-3h1.2Z"/>
  <path class="cls-53" d="M471.17,37.49c0,1,0,2,0,3,0,.88-1,.84-1.2,0,0-1,0-2,0-3h1.2Z"/>
  <path class="cls-30" d="M471.17,40.49c0,.9,0,1.8,0,2.7h-1.2c0-.9,0-1.8,0-2.7h1.2Z"/>
  <path class="cls-3" d="M471.17,128.34c0,.8,0,1.6,0,2.4,0,.88-1,.84-1.2,0,0-.8,0-1.6,0-2.4,0-.88,1-.84,1.2,0Z"/>
  <path class="cls-65" d="M471.17,120.85c0,.8,0,1.6,0,2.4,0,.88-1,.84-1.2,0,0-.8,0-1.6,0-2.4,0-.88,1-.84,1.2,0Z"/>
  <path class="cls-41" d="M471.17,30.89c0,.7,0,1.4,0,2.1h-1.2c0-.7,0-1.4,0-2.1,0-.88,1-.84,1.2,0Z"/>
  <path class="cls-13" d="M471.17,118.75c0,.7,0,1.4,0,2.1h-1.2c0-.7,0-1.4,0-2.1h1.2Z"/>
  <path class="cls-14" d="M471.17,130.74c0,.6,0,1.2,0,1.8h-1.2c0-.6,0-1.2,0-1.8h1.2Z"/>
  <path class="cls-28" d="M471.17,273.17v1.8c0,.88-1,.84-1.2,0,0-.6,0-1.2,0-1.8h1.2Z"/>
  <path class="cls-15" d="M471.17,274.97v1.8h-1.2c0-.6,0-1.2,0-1.8h1.2Z"/>
  <path class="cls-35" d="M471.17,124.74c0,.6,0,1.2,0,1.8,0,.88-1,.84-1.2,0,0-.6,0-1.2,0-1.8,0-.88,1-.84,1.2,0Z"/>
  <path class="cls-7" d="M471.17,126.54c0,.6,0,1.2,0,1.8h-1.2c0-.6,0-1.2,0-1.8h1.2Z"/>
  <path class="cls-43" d="M471.17,266.27v1.5h-1.2c0-.5,0-1,0-1.5h1.2Z"/>
  <path class="cls-7" d="M471.17,123.25c0,.5,0,1,0,1.5h-1.2c0-.5,0-1,0-1.5h1.2Z"/>
  <path class="cls-13" d="M471.17,29.39c0,.5,0,1,0,1.5h-1.2c0-.5,0-1,0-1.5h1.2Z"/>
  <rect class="cls-39" x="469.97" y="173.02" width="1.2" height="1.5"/>
  <path class="cls-27" d="M50.87,265.37c-.09.26-.19.26-.3,0l-.59-.42c0-.85-.21-1.71-.61-2.58,0-26.66-.6-53.75,0-80.36.02-1.06.25-1.84.69-2.36-.2-1.36-.03-2.47.51-3.34-.88-1.45-.86-3.62,0-5.1.09-.26.19-.26.3,0v94.15Z"/>
  <path class="cls-39" d="M49.37,267.17c.45-.09.85.21,1.2.9.24,1.69.24,3.41,0,5.1-.24.59-.59.77-1.2.6v-6.6Z"/>
  <path class="cls-23" d="M50.57,274.67c.51,1.4.05,2.53-.42,3.6l.14,5.02-.62.37c-.1,0-.2,0-.3,0v-8.4c.13-1.06.61-1.82,1.2-.6Z"/>
  <path class="cls-24" d="M49.37,262.38c.04.91,1.17.91,1.22,1.07.11.37-.04,1.39-.02,1.93.23.26.23.64,0,.9-.59,1.22-1.07.46-1.2-.6v-3.3Z"/>
  <path class="cls-9" d="M49.37,265.67c.27.55.58.72,1.2.6.23.57.23,1.23,0,1.8-.96.21-.82-.23-1.2-.9v-1.5Z"/>
  <path class="cls-28" d="M50.57,273.17c.23.47.23,1.03,0,1.5-.62-.12-.93.05-1.2.6v-1.5c.27-.55.58-.72,1.2-.6Z"/>
  <g>
    <path d="M469.67,283.67c-55.79.28-111.59.28-167.4,0-.59.37-1.39.37-2.4,0h-78.9c-.74.3-1.51.5-2.3.6l-.4-.6c-55.8.24-111.6.23-167.4,0l-.58-.28c0-2.01,0-4.03-.02-6.05l.36-.27c.03-3.94.11-7.83.24-11.69-.59-31.38-.59-62.77,0-94.15-.74-16.89-.75-33.79,0-50.67-.92-26.87-.97-53.79,0-80.66-.23-2.79-.24-5.6,0-8.4.02-7.73-.04-15.48.03-23.21.22-1.59,1.76-3.98,2.97-4.97,1.11-.91,2.89-1.7,4.34-1.81h403.82c3.95.26,7.29,3.37,7.65,7.35v274.83Z"/>
    <g>
      <path class="cls-51" d="M471.17,276.77v6.9c-.88,0-1.64.31-2.54.31-55.45.21-110.91-.19-166.36-.01-.26-.09-.26-.19,0-.3h167.4c.3.01.28-.19.31-.43.23-1.83-.02-4.51,0-6.46,0-.88,1-.84,1.2,0Z"/>
      <path class="cls-33" d="M50.87,120.55c-.09.26-.19.26-.3,0-.63-.3-1.03-.9-1.2-1.8,0-20.18-.07-40.39,0-60.57-.07-4.9-.04-9.81.08-14.71.54-.43.78-1.15.72-2.14l.4-.24c-.76-.44-.76-.76,0-1.2.09-.26.19-.26.3,0-.05,26.88,0,53.78,0,80.66Z"/>
      <path class="cls-36" d="M50.87,171.22h-.3c-.74-.6-1.14-1.6-1.2-3v-35.38c.57-1.26.78-2.59.63-4.01l.57-.49c-.8-1.68-.8-3.42,0-5.1-.88-.6-.85-2.08,0-2.7h.3c0,16.89,0,33.79,0,50.67Z"/>
      <path class="cls-56" d="M49.67,283.67c.38-.58.82-.58,1.2,0,55.79-.03,111.61,0,167.4,0,.26.09.26.19,0,.3H49.07v-.3c.1,0,.2,0,.3,0,.06-.27.16-.26.3,0Z"/>
      <path class="cls-1" d="M50.87,39.89h-.3c0-.6,0-1.2,0-1.8.02-2.19-.02-4.4,0-6.6h.3c0,2.79,0,5.6,0,8.4Z"/>
      <path class="cls-20" d="M61.07,201.81l-8.7,9.9V8.25c0-1.61,3.66-5.25,5.25-5.25h176.55l-14.4,16.79H61.37c-.27,59.88-.37,120.45-.3,181.71.2.06.19.17,0,.3Z"/>
      <path class="cls-5" d="M259.89,7.86c4.03-.49,4.94,6.4-.08,5.95-3.4-.3-3.23-5.55.08-5.95Z"/>
      <path class="cls-22" d="M299.87,283.67v.3c-.3-.02-.6,0-.9,0-25.14-.58-51.33-.38-76.5,0-.4,0-.8-.02-1.2,0-.1,0-.2,0-.3,0v-.3c26.29,0,52.61,0,78.9,0Z"/>
      <path class="cls-16" d="M50.87,283.67c-.4,0-.8,0-1.2,0,.27-1.88-.36-4.7-.02-6.43.07-.36.87.03.94-.33.11-.56-.04-1.57-.02-2.24.01-.5,0-1,0-1.5.02-1.69.02-3.4,0-5.1,0-.6,0-1.2,0-1.8,0-.3,0-.6,0-.9h.3v18.29Z"/>
      <g>
        <path class="cls-50" d="M219.77,19.8c79.55-.01,159.11.02,238.67-.02.31-.07,1.03.22,1.03.47v247.08l-398.1.45c-.27-21.8-.26-44.52,0-66.27-.43-60.5-.43-121.07,0-181.71l.29-.6h157.74l.38.6Z"/>
        <path class="cls-25" d="M61.37,267.77l-.31-.73c.02-21.74.02-43.49.01-65.23,0-.1,0-.2,0-.3.09-.26.19-.26.3,0v66.27Z"/>
        <path class="cls-62" d="M61.37,201.51h-.3c-.02-59.99-.64-120.07,0-180.06,0-.51-.19-1.33.31-1.64v181.71Z"/>
      </g>
    </g>
  </g>
  <g>
    <path class="cls-63" d="M2.57,283.67l.6.3c.43,0,.61.29.54.89l-.27,6.28c-.28,1.69.23,2.6,1.53,2.72,6-.17,12-.17,18,0,1.19-.25,2.4-.24,3.6,0,7.38-.81,14.82-.83,22.2,0,7.5-.26,15-.24,22.5,0,6-.22,12-.22,18,0,18.9-.25,37.8-.33,56.7,0,.03-.23.08-.55.27-.6.44-.11,5.29-.09,5.91,0l.43.6c56.5-.47,113-.28,169.5,0,12.44-.26,25.85-.26,38.4,0,21-.23,42-.23,63,0,10.9-.23,21.8-.23,32.7,0,8.4-.24,16.8-.27,25.2,0,5.58-.83,11.22-.81,16.8,0,6.51.06,13.01,0,19.52-.17.27-.1.37-.61.42-1.01v-8.39c0-.25.17-.34.46-.32.06-.14.26-.24.6-.3.34.02.98-.08,1.2,0,.38,3.49.28,6.89-.3,10.19-.07-.93-.17-.93-.3,0,.04.12.06.22.02.26-1.28,1.3-9.3,2.95-11.42,3.33-165.34,0-330.74,0-496.2,0-3.9-.77-7.86-1.78-11.4-3.6.02-.42.3-.63.86-.64.32-.51.11-8.29-.13-8.66-.55.05-.89.04-1.03-.6-.17-.09-.17-.19,0-.3.57-.11,1.46.02,2.1,0Z"/>
    <path class="cls-8" d="M501.17,298.96c-.06.34-.42.3-.6,0l-.9.3c-.16.29-.7.28-.9,0l-.9.3c-.23.22-.64.19-.9,0-.36.1-.76.2-1.2.3-.35.27-.83.23-1.2,0-.36.1-.76.2-1.2.3-.56.28-1.22.23-1.8,0-.47.1-.97.2-1.5.3l-4.03.46-113.15-.19c-113.14.57-226.28.57-339.42.02-.1,0-.2,0-.3,0-.93-.09-1.83-.19-2.7-.3-.52-.1-1.02-.2-1.5-.3-.47.23-1.04.27-1.5,0-.52-.1-1.02-.2-1.5-.3-.29.25-.83.16-1.2,0l-.9-.3c-.19.36-.86.26-1.2,0l-.9-.3c-.1.41-.62.31-.9,0l-.9-.3c-.1.4-.33.34-.6,0l.29-.6h481.13l.38.6Z"/>
    <path class="cls-66" d="M490.07,300.46c.37-.19.86-.29,1.2,0l-5.24.61c-150.28-1.22-300.65,1.57-450.92,0-.51,0-1.33.19-1.65-.31,150.85.4,301.71-.31,452.56.01,1.35-.26,2.67-.26,4.04-.31Z"/>
    <path class="cls-64" d="M.47,283.97h1.8c-.36,2.68.48,6.63,0,9.15-.17.89-.74.79-1.5.75-.02.16-.22.16-.6,0,.38-2.91-.52-7.16,0-9.9.09-.16.19-.16.3,0Z"/>
    <path class="cls-66" d="M496.97,299.86c-.26-.09-.26-.19,0-.3.3-.01.61.03.9,0l.9-.3c.29-.04.62.04.9,0l.9-.3c.19-.03.41.03.6,0,2.01-1.32,4.83-1.78,7.2-1.5,2.49-.61,9.66-2.2,11.4-3.6.08-.27.18-.26.3,0l.3-10.19c.43.15.29.39.31.73.15,2.22.26,6.61,0,8.73-.05.4-.02.55-.31.89-.68.77-8.82,3.02-10.38,3.42-4.23,1.08-8.67,2.09-13.03,2.42Z"/>
    <path class="cls-66" d="M30.47,300.46c.85,0,2.11-.24,2.7.3-1.23,0-2.9.25-3.9-.3.38-.25.79-.2,1.2,0Z"/>
    <path class="cls-66" d="M27.47,300.16c.5,0,1-.01,1.5,0,.26.09.26.19,0,.3-.85,0-2.11.24-2.7-.3.35-.27.83-.19,1.2,0Z"/>
    <path class="cls-66" d="M493.37,300.16c.31-.19.62-.24.9,0-.59.54-1.85.29-2.7.3-.26-.09-.26-.19,0-.3.6-.01,1.2,0,1.8,0Z"/>
    <path class="cls-66" d="M.77,293.86c3.98,1.49,7.28,2.52,11.4,3.6,1.93-.33,4.52.17,6,1.5-1.8-.17-3.65-.51-5.4-.9l-.3-.3c-4.16-.97-8.57-1.88-12.3-3.9.18.04.46-.05.6,0Z"/>
    <path class="cls-66" d="M19.37,298.96c.2,0,.4-.01.6,0l.9.3c.3.01.61-.03.9,0l.9.3c.38.05.81-.05,1.2,0l.9.3c.39.04.81-.03,1.2,0,.26.09.26.19,0,.3-2.32-.14-5.25-.43-7.5-.9v-.3c.28-.8.62-.81.9,0Z"/>
    <path class="cls-66" d="M495.77,299.86c.29-.17.67-.26.9,0-.41.52-1.44.29-2.1.3-.26-.09-.26-.19,0-.3.4-.01.8,0,1.2,0Z"/>
    <path class="cls-6" d="M491.57,300.16v.3c-.1,0-.2,0-.3,0-.4,0-.8-.02-1.2,0,.25-.48,1.02-.29,1.5-.3Z"/>
    <path class="cls-6" d="M30.47,300.46c-.4,0-.8,0-1.2,0-.1,0-.2,0-.3,0v-.3c.48.01,1.25-.18,1.5.3Z"/>
    <path class="cls-6" d="M27.47,300.16c-.4,0-.8.02-1.2,0-.1,0-.2,0-.3,0v-.3c.48.04,1.24-.2,1.5.3Z"/>
    <path class="cls-6" d="M494.57,299.86v.3c-.1,0-.2,0-.3,0-.3,0-.6,0-.9,0,.21-.45.8-.29,1.2-.3Z"/>
    <path class="cls-6" d="M496.97,299.56v.3c-.1,0-.2,0-.3,0-.3.02-.6,0-.9,0,.21-.45.81-.29,1.2-.3Z"/>
    <path class="cls-50" d="M18.47,299.26c-.11-.02-.23-.28-.3-.3.1-.26.2-.26.3,0v.3Z"/>
    <path class="cls-50" d="M12.77,298.06c-.23-.05-.28-.3-.3-.3l.3.3Z"/>
    <path class="cls-12" d="M471.17,283.67c.1,0,.2,0,.3,0l.73.31c15.15-.21,30.32.24,45.47-.01.15,0,.29.02.4.09.41.25,0,8.58-.23,9.63-6.55.18-13.11.23-19.67.17-5.59.01-11.21,0-16.8,0-8.22-.16-16.62-.26-25.2-.3-10.57.26-22.03.26-32.7,0-21,.22-42,.22-63,0-12.44.26-25.85.26-38.4,0-57.16-.05-113.66.05-169.5.3h-6.6c-18.59-.17-37.49-.27-56.7-.3-5.78.26-12.15.26-18,0-7.69.03-15.19.13-22.5.3-7.39,0-14.81.01-22.2,0-1.24-.12-2.44-.22-3.6-.3-.98.08-1.97.15-2.95.16-4.95.04-9.88.05-14.83,0-.48,0-.25-8.68-.22-9.55,0-.07.13-.14.3-.2,14.59.09,29.21,0,43.8,0,55.49-.28,113.63-.26,169.2,0,.76.35,1.3,2.3.9,3,.99.43,1.29.93.9,1.5.91-.07,1.21.13.9.6.69-.53.9-.17.6.6l.3.3c.1-.26.2-.26.3,0,.48-.67,1.94-.2,2.1.6,1.34.03,2.64.13,3.9.3,7.79-.15,15.62-.25,23.4,0,6.9-.22,13.8-.22,20.7,0,7.1-.18,14.2-.18,21.3,0,.85-.19,1.75-.29,2.7-.3.21-.79,2.21-1.34,3-1.2.09-.26.19-.26.3,0l.3-.3c-.3-.76.14-1.21.9-.9-.07-.58-.04-1.09.6-.9-.1-1.38.2-2.48.9-3.3,56.25-.12,112.09-.2,167.53-.22.44-.73.94-.99,1.37-.08Z"/>
    <path class="cls-6" d="M12.17,297.46l.45-.6h495.31l.45.6c-2.41.59-4.75,1.07-7.2,1.5H19.37c-.3,0-.6.02-.9,0-.1,0-.2,0-.3,0-1.98-.42-4.03-.99-6-1.5Z"/>
    <path class="cls-40" d="M322.07,293.56c.26.09.26.19,0,.3-56.49,0-113.01,0-169.5,0,.31-.5,1.14-.3,1.65-.31,55.92-.59,111.93,0,167.85,0Z"/>
    <path class="cls-60" d="M423.47,293.56c.26.09.26.19,0,.3-20.99,0-42.01,0-63,0-.26-.09-.26-.19,0-.3,20.99,0,42.01,0,63,0Z"/>
    <path class="cls-21" d="M145.97,293.86c-18.89,0-37.81,0-56.7,0-.26-.09-.26-.19,0-.3,18.34,0,36.72-.23,55.05,0,.51,0,1.33-.19,1.65.31Z"/>
    <path class="cls-2" d="M518.57,283.97c-.2,1.4.38,9.3-.28,9.76-.83.57-17.57.13-20.12.13l19.5-.3v-9.6c.3,0,.6.02.9,0Z"/>
    <rect class="cls-48" x="322.07" y="293.56" width="38.4" height=".3"/>
    <path class="cls-59" d="M5.27,283.97v9.6c5.89.01,11.8-.02,17.7,0,.26.09.26.19,0,.3-5.86-.01-12.21.32-18,0-.26-.05-.36-.15-.3-.3-.39-.4-.52-1.09-.39-2.07-.06-2.26-.01-5.06.11-7.32,0-.07.13-.14.29-.2.2,0,.4,0,.6,0Z"/>
    <path class="cls-47" d="M456.17,293.56c.26.09.26.19,0,.3-10.89,0-21.81,0-32.7,0v-.3h32.7Z"/>
    <path class="cls-32" d="M4.07,283.97c.31.1.43.39.35.89l-.11,7.88c0,.31.13.59.36.83.13.04.25.17.3.3-.57-.03-1.52.22-1.76-.49-.65-1.93.4-7.1-.04-9.4.3.02.6,0,.9,0Z"/>
    <path class="cls-56" d="M481.37,293.86c-8.39,0-16.81,0-25.2,0v-.3c7.84,0,15.71-.1,23.55,0,.51,0,1.33-.19,1.65.31Z"/>
    <path class="cls-56" d="M71.27,293.56c.26.09.26.19,0,.3-7.49,0-15.01,0-22.5,0,.31-.5,1.14-.3,1.65-.31,6.95-.07,13.91,0,20.85,0Z"/>
    <path class="cls-19" d="M519.77,293.86c-.31-1-.62-9.76-.15-9.9.7-.2.43.64.45,1.05.12,2.94-.09,5.91,0,8.85-.02.05-.25-.04-.3,0Z"/>
    <path class="cls-45" d="M89.27,293.56v.3c-6,0-12,0-18,0v-.3h18Z"/>
    <path class="cls-4" d="M26.57,293.86c-1.2,0-2.4,0-3.6,0v-.3c1.13,0,2.71-.25,3.6.3Z"/>
    <path class="cls-6" d="M24.77,299.86l-.9-.3c.57.07.85.29.9.3Z"/>
    <path class="cls-6" d="M498.77,299.26s-.31.24-.9.3l.9-.3Z"/>
    <path class="cls-6" d="M22.67,299.56l-.9-.3c.56.07.85.29.9.3Z"/>
    <path class="cls-6" d="M500.57,298.96s-.38.22-.9.3l.9-.3Z"/>
    <path class="cls-6" d="M20.87,299.26c-.33-.02-.75.09-.9-.3.33.02.75-.1.9.3Z"/>
    <path class="cls-46" d="M4.67,283.97v9.6c-.19-.06-.53.18-.62-.18-.54-2.34.44-6.82.02-9.42.2,0,.4,0,.6,0Z"/>
    <path class="cls-11" d="M298.97,283.97l.63.38-.07,3.2c.23.81.15,1.42-.25,1.82-1.39,1.06-1.29.9-3,1.2-.95.16-1.85.16-2.7,0-6.86.4-14.37.25-21.3,0-6.67.27-13.96.27-20.7,0-7.8.24-15.6.3-23.4,0-1.24.18-2.54.18-3.9,0-1.06-.17-1.12-.14-2.1-.6l-.44-.58c.21-1.65.25-3.31.11-4.99l.63-.42c25.48-.45,51.02-.57,76.5,0Z"/>
    <path class="cls-67" d="M299.87,283.97c.14-.26.37-.2.6,0l.32.13c0,1.38-.01,2.74-.02,4.06-.35.47-.42.55-.9.9l-.3.3c-.08.04-.24-.05-.3,0-.68-1.61-.12-3.68-.3-5.4.23-.23.67-.24.9,0Z"/>
    <path class="cls-10" d="M222.47,283.97c-.18,1.92.38,4.18-.3,6-.08-.04-.22.04-.3,0l-.3-.3c-.28-.22-.43-.46-.6-.6-.25-.16-.24-.54.03-1.12l-.05-3.8.32-.17c.34-.24.86-.23,1.2,0Z"/>
    <path class="cls-34" d="M251.57,290.56c.26.09.26.19,0,.3-7.78-.02-15.63.22-23.4,0-.26-.09-.26-.19,0-.3h23.4Z"/>
    <path class="cls-52" d="M293.57,290.56c.26.09.26.19,0,.3-6.96.29-14.29-.02-21.3,0-.26-.09-.26-.19,0-.3h21.3Z"/>
    <path class="cls-58" d="M272.27,290.56v.3c-6.89.02-13.81.02-20.7,0v-.3h20.7Z"/>
    <path class="cls-54" d="M220.97,283.67c.26.09.26.19,0,.3-.06.27-.16.26-.3,0-.49.95-.63,2.05-.42,3.32-.21.61-.57.51-1.08-.32-.46-.95-.99-1.89-.9-3v-.3h2.7Z"/>
    <path class="cls-17" d="M220.67,283.97c.36.81.95,5.4-.6,4.5-.48-.55-.6-.89-.9-1.5l.6.45v-3.45c.3-.01.6.02.9,0Z"/>
    <path class="cls-26" d="M302.27,283.67v.3c.13,1.21-.36,2.26-.9,3.3l-.5.04c-.16-1-.18-2.02-.06-3.05.07.38-.04.29-.34-.28-.2-.01-.4.01-.6,0-.26-.09-.26-.19,0-.3.8,0,1.61,0,2.4,0Z"/>
    <path class="cls-31" d="M221.27,283.97c-.17,1.63.38,3.64-.3,5.1-.24-.2-.57-.22-.9-.6.17-.03.56.05.6,0,.19-.26-.14-3.77,0-4.5.1,0,.2,0,.3,0,.06-.2.17-.19.3,0Z"/>
    <path class="cls-22" d="M300.47,283.97c.2.01.4-.02.6,0,.27.35-.42,2.83.3,3.3-.15.29-.4.63-.6.9-.67-1.15-.14-2.87-.3-4.2Z"/>
    <path class="cls-38" d="M228.17,290.56v.3c-1.53-.04-2.42-.06-3.9-.3h3.9Z"/>
    <path class="cls-18" d="M296.27,290.56c-1.06.19-1.56.25-2.7.3v-.3h2.7Z"/>
    <path class="cls-42" d="M299.57,289.36c.09-.11.19-.22.3-.3-.11.08-.2.25-.3.3Z"/>
    <path class="cls-49" d="M221.87,289.96c-.1-.05-.2-.22-.3-.3.11.09.21.19.3.3Z"/>
  </g>
</svg>