<?xml version="1.0" encoding="UTF-8"?>
<svg id="Layer_1" data-name="Layer 1" xmlns="http://www.w3.org/2000/svg" viewBox="0 0 240.51 457.18">
  <defs>
    <style>
      .cls-1 {
        fill: #b7b6b6;
      }

      .cls-2 {
        fill: #422d41;
      }

      .cls-3 {
        fill: #60495e;
      }

      .cls-4 {
        fill: #4c324a;
      }

      .cls-5 {
        fill: #03418a;
      }

      .cls-6 {
        fill: #4d3a4b;
      }

      .cls-7 {
        fill: #bdbcbc;
      }

      .cls-8 {
        fill: #a1a1a1;
      }

      .cls-9 {
        fill: #6d4b68;
      }

      .cls-10 {
        fill: #393b3c;
      }

      .cls-11 {
        fill: #25282b;
      }

      .cls-12 {
        fill: #dbdad9;
      }

      .cls-13 {
        fill: #81807f;
      }

      .cls-14 {
        fill: #1d1d1b;
      }

      .cls-15 {
        fill: #ccc;
      }

      .cls-16 {
        fill: #a395a2;
      }

      .cls-17 {
        fill: #c5c4c4;
      }

      .cls-18 {
        fill: #3f2a3c;
      }

      .cls-19 {
        fill: #fff;
      }

      .cls-20 {
        fill: #483546;
      }

      .cls-21 {
        fill: #322130;
      }

      .cls-22 {
        fill: #795c72;
      }

      .cls-23 {
        fill: #432f41;
      }

      .cls-24 {
        fill: #ebe9e8;
      }

      .cls-25 {
        fill: #e6e5e4;
      }

      .cls-26 {
        fill: #3c2a3b;
      }

      .cls-27 {
        fill: #452f43;
      }

      .cls-28 {
        fill: #abaaaa;
      }

      .cls-29 {
        fill: #e7e6e5;
      }

      .cls-30 {
        fill: #533651;
      }

      .cls-31 {
        fill: #634c61;
      }

      .cls-32 {
        fill: #e5e4e3;
      }

      .cls-33 {
        fill: #eae9e8;
      }

      .cls-34 {
        fill: #cbcaca;
      }

      .cls-35 {
        fill: #695366;
      }

      .cls-36 {
        fill: #5e475c;
      }

      .cls-37 {
        fill: #3d2a3c;
      }

      .cls-38 {
        fill: #02264c;
      }

      .cls-39 {
        fill: #dcdbdb;
      }

      .cls-40 {
        fill: #0d2130;
      }

      .cls-41 {
        fill: #e9e8e7;
      }

      .cls-42 {
        fill: #d6d5d4;
      }

      .cls-43 {
        fill: #e2e1e1;
      }

      .cls-44 {
        fill: #624c61;
      }

      .cls-45 {
        fill: #5f475d;
      }

      .cls-46 {
        fill: #7b6674;
      }
    </style>
  </defs>
  <path class="cls-33" d="M160.79,444.02c.93-.28,3.17-.61,3.2.4-41.72-.52-86.39-.6-126.4,2-7.67.63-15.18,1.55-22.53,2.74-.41-.09-1.95.85-1.88,1.03,1.48,3.44,64.99,5.97,74.41,5.83,1.48.17,2.95.31,4.4.4-.35,1.09-.85.57-1.5.54-13.57-.48-27.15-.36-40.69-.95-1.17-.05-2.5-.71-3.61-.71s-2.64.82-3.59.71c-7.75-.92-16.33-1.31-24.42-1.99-4.87-.41-11.63-.4-16.29-2.11-4.15-1.53-.56-3.63,1.99-4.2,6.07-1.37,12.87-1.31,19.11-1.77,28.79-2.11,57.94-2.79,87.13-2.97,1.52,0,4.06.77,5.64.62,2.08-.2,3.36-1.03,6.05-.79,12.78,1.17,26.13.03,38.98,1.22Z"/>
  <path class="cls-44" d="M222.79,404.82h.8c-3.84,14.08-15.62,23.59-30.18,24.82l-146.81-.02c-12.32-.89-25.52-9.89-29.01-21.99.27-.04.54-.04.8,0l1.23.8c4.75,10.29,14.5,17.87,25.84,19.19l149.09.02c12.52-1.34,22.9-10.12,27.08-21.89l1.16-.93Z"/>
  <path class="cls-24" d="M160.79,444.02c.42-.66,1.52-.4,2.19-.41,9.28-.12,18.92.66,27.99.79,12.02.17,26.55.69,38.37,2.06,3.43.4,7.2,1.6,10.66,2.14,1.68,2.73-1.17,3.32-3.36,3.88-4.87,1.25-10.55,1.29-15.59,1.69-28.36,2.28-56.8,2.41-85.47,2.65-.35-.11-.34-.25,0-.4,6.18.06,12.18-.08,18-.4,3.49-.68,7.24-.62,10.8-.4,14.38-.43,28.74-1.02,43.1-2.04,1.37-.1,20.25-2.11,20.81-3.44.26-.63-6.13-1.6-6.92-1.29l-.59-.84-6-.8c-.07.36-.21.34-.4,0-16.29-1.02-33.09-1.95-50.4-2.8-.69-.78-2.19-.31-3.2-.4Z"/>
  <path class="cls-33" d="M135.59,456.42v.4c-12.82.11-25.77.19-38.62-.02-1.51-.02-3.15,1.09-4.58-.38,14.4-.18,28.8-.11,43.2,0Z"/>
  <path class="cls-41" d="M153.59,456.02c-.42.66-1.52.4-2.19.41-5.26.07-10.55,0-15.81,0-14.39,0-28.81.05-43.2,0-.13,0-.27,0-.4,0-1.38,0-3.35.34-4.4-.4,22.01-.07,44.01-.07,66,0Z"/>
  <path class="cls-46" d="M226.39,153.22c-.11.35-.25.34-.4,0,0-.13,0-.27,0-.4-.46-6.25-.8-12.56,0-18.8-1.07-5.6-1.1-11.6,0-17.2.15-.83.29-1.63.4-2.4.02-1.2,0-2.4,0-3.6l-1.59.4c-.08-.5.09-1.14,0-1.6,2.87-.21,2.07,4.5,2,6.6-.42,12.26-.61,24.69-.4,37Z"/>
  <path class="cls-44" d="M16.39,403.22c-.04-.26-.34-.74-.4-1.6l.4,1.6Z"/>
  <path class="cls-44" d="M17.59,407.22c-.86-.46-.62-1.33-.8-2,.61.52.62,1.3.8,2Z"/>
  <path class="cls-44" d="M16.79,404.82c-.07-.27-.27-.51-.4-1.2l.4,1.2Z"/>
  <path class="cls-32" d="M37.59,446.42c3.7-.58,7.48-.7,11.2-.4-8.8.72-17.65,2.08-26.54,4.08,7.81,2.14,16.56,3.37,25.23,3.86,34.09,1.93,68.26,1.88,102.37,1.1,4.17-.1,8.38-.01,12.55.16.67-.31,1.35-.32,2,0,.35.11.34.25,0,.4-3.61.08-7.18.35-10.8.4-21.84.3-44.16.32-66,0-20.33-.3-42.46-.65-62.6-2.8-2.67-.28-6.57-.7-9.1-1.3-.47-.11-3.39-.96-3.51-1.09-.62-.73.83-1.87,1.55-2.16,1.89-.75,10.47-1.59,13.05-1.83,3.52-.33,7.19-.26,10.6-.4Z"/>
  <path class="cls-29" d="M163.99,444.42c11.54.29,23.06.88,34.6,1.2l15.8,1.6c-.16.56-.83.69-2,.4-.58.41-1.21.66-1.91.76-12.6-1.95-25.6-2.46-38.87-2.84-25.63-.72-51.46-1.15-76.84-.95-.42,0-.8.04-1.18.23-12.41.47-24.81.73-37.2.8l-6,.4c-.54.39-1.09.41-1.6,0-3.76.05-7.46.24-11.2.4,3.42-1.19,7.09-.6,10.62-.78,38.47-1.98,77.25-2.19,115.78-1.22Z"/>
  <path class="cls-25" d="M214.39,447.22c.13,0,.27,0,.4,0l6,.8c2.13.16,3.82-.05,6.01.59,2.89.86,3.35,2.01.17,2.98-2,.61-6.57,1.2-8.85,1.47-17.42,2.03-36.14,2.16-53.73,2.56v-.4c1.6-.35,3.21-.41,4.8,0l6.8-.4c1.2-.34,2.42-.4,3.6,0l4.8-.4c1.2-.36,2.42-.44,3.6,0l6.4-.4c.25-.55.57-.56.8,0l3.6-.4c6.88-.87,13.7-1.98,20.46-3.32-1.92-.98-4.18-1.56-6.77-1.75l-.09-.93c.28,0,1.16-.39,2-.4Z"/>
  <path class="cls-29" d="M220.79,448.02c-.31-.02-.93.26-1.61.22-1.2-.07-3.21-.61-4.39-1.02,1.97-.03,4.22-.16,6,.8Z"/>
  <path class="cls-35" d="M225.99,116.82c0-.53.01-1.07,0-1.6,0-.13,0-.27,0-.4s0-.27,0-.4h.4c-.01.76.27,1.97-.4,2.4Z"/>
  <g>
    <path class="cls-3" d="M224.79,109.62c2.11.81,2.24,2.7,1.6,4.8-.11.35-.25.34-.4,0-.87-.24-.87-1.35,0-1.6-.39-.23-.79-.23-1.2,0,.51.56.91,1.22,1.2,2,.29.08.27.22,0,.4-.06.39-.2.8-.59.78-.08,7.55-.15,15.03-.21,22.42l.37.52c-.05,4.6-.04,9.38.43,13.88.27.09.25.22,0,.4.32,1.1,1.09,6.4.11,7.11l-1.31.09c1.01.36,1.03.79,0,1.2,0,.13,0,.27,0,.4-.13,73.86-.15,148.35-.06,223.47l-.34,11.33c.39,1.12.32,2.44,0,3.6-.01.27.02.54,0,.8l-.4,1.6c-.02.13.02.27,0,.4l-.4,1.2c-.03.13.03.28,0,.4-.65,1.36-.72,1.94-.8,0-.36-.07-.35-.21,0-.4l.4-1.2c-.36-.04-.34-.18,0-.4l.4-1.6c-.77-.23-.77-.58,0-.8l.4-2.4c-.33-6.08-.61-12.16-.61-18.24.1-94.24.04-188.48-.48-282.73-.34-21.3.03-42.58,1.09-63.83h.4l.24,1.79c-.41,25-.36,49.87.16,74.61Z"/>
    <g>
      <path class="cls-31" d="M224.79,396.82c-.11.35-.25.34-.4,0,1.66-77.45-.97-155.12,0-232.61,0-.68-.26-1.78.41-2.19-.36,78.26.48,156.55,0,234.8Z"/>
      <path class="cls-31" d="M224.79,109.62c-.06-.31-.38-.58-.43-1.35-1.59-24.13.61-50.56.03-75.05-.03-1.32.08-2.68,0-4,.66.42.4,1.52.41,2.19.32,26.06-.26,52.15,0,78.21Z"/>
      <path class="cls-35" d="M226.39,160.82c-.25.72-1.59.46-1.6-.4.21-.55,1.13-.38,1.42-.78.39-.53-.19-5.16-.22-6.42h.4c.04,2.54.95,5.19,0,7.6Z"/>
      <path class="cls-22" d="M226.39,160.82c-.34.87.22.97-1.6.8.03-.43-.02-1.14,0-1.2l1.6.4Z"/>
      <path class="cls-44" d="M224.39,400.42c.06-1.19-.03-2.41,0-3.6h.4c0,1.13.32,2.81-.4,3.6Z"/>
      <path class="cls-44" d="M223.99,402.82l.4-1.6c-.06.86-.36,1.35-.4,1.6Z"/>
      <path class="cls-44" d="M223.59,404.42l.4-1.2c-.12.69-.35.99-.4,1.2Z"/>
      <path class="cls-9" d="M225.99,115.22c.38.47.24,1.07,0,1.6.06,5.73-.02,11.47,0,17.2-.03,1.72-.3,3.18-.8,4.4-.66-.42-.4-1.52-.41-2.19-.08-6.27-.48-13.9,0-20.03.1-1.23-.2-1.03,1.2-.98Z"/>
      <path class="cls-35" d="M225.99,152.82c-.66-.42-.4-1.52-.41-2.19-.06-4.51-.94-8.04-.39-12.21.19-1.43.36-3.17.8-4.4.02,6.26-.1,12.55,0,18.8Z"/>
      <rect class="cls-26" x="224.79" y="157.22" width="1.2" height="2"/>
      <path class="cls-18" d="M225.99,112.82c.02.53-.02,1.07,0,1.6.28.08.26.22,0,.4-1.33.01-1.22-.94-1.2-2,.18-.65,1.09-.73,1.2,0Z"/>
      <path class="cls-44" d="M223.59,400.42c.09-.74-.33-1.95.4-2.4,0,.76.27,1.97-.4,2.4Z"/>
      <path class="cls-30" d="M224.79,112.82c.02-.82.48-1.31,1.2-.8.02.26-.01.53,0,.8h-1.2Z"/>
      <path class="cls-44" d="M223.19,402.82c.08-.69.39-1.48.4-1.6l-.4,1.6Z"/>
      <path class="cls-44" d="M222.79,404.42c.03-.44-.13-1,.4-1.2-.02.44.13,1-.4,1.2Z"/>
    </g>
  </g>
  <path class="cls-43" d="M93.59,444.82c4.45-.32,9.28-.44,13.6,0-16.48.62-32.91,1.19-49.28,1.72-2.46-.23-27.39,2.14-27.28,3.52.23,2.74,48.65,5.13,54.69,4.66.38-.42.76-.75,1.17-.78,2.88-.21,6.55-.03,9.48.18.56.04,1.11.39,1.64.83,17.98.66,35.71.48,53.19-.53.07-.36.21-.34.4,0,3.65.15,7.39.28,11.2.4.35.11.34.25,0,.4-41.52.44-86.19,2.05-127.4-2-6.51-.64-24.11-2.91-5.56-5.55l19.35-1.65c.53,0,1.07,0,1.6,0l6-.4c12.42-.03,24.75-.8,37.2-.8Z"/>
  <path class="cls-43" d="M212.39,447.62c2.06,1.13,5.12.24,6.95,1.65,1.03.8.91,1.5-.27,2.04-6.65,1.27-13.48,2.26-20.28,2.31l-3.6.4c-.27,0-.53,0-.8,0l-6.4.4c-1.2,0-2.4,0-3.6,0l-4.8.4c-1.2,0-2.4,0-3.6,0l-6.8.4c-1.6,0-3.2,0-4.8,0-.67,0-1.33,0-2,0v-.4c12.01-.55,23.74-1.28,35.18-2.18,1.38.1,12.61-1.94,12.61-2.58,0-2.42-41.47-4.06-45.44-4.16-18.12-.46-36.23-.84-54.34-1.07-.65.32-1.34.32-2,0-.39.49-.82.49-1.2,0h-13.6c.42-.66,1.52-.4,2.19-.41,32.17-.4,64.77-.03,96.8,1.61,6.56.34,13.24,1.55,19.8,1.6Z"/>
  <path class="cls-32" d="M56.39,445.62c-1.65.74-4.1.4-6,.4,1.65-.74,4.1-.4,6-.4Z"/>
  <path class="cls-32" d="M175.99,454.82c-1.93.74-4.63.4-6.8.4,1.93-.74,4.63-.4,6.8-.4Z"/>
  <path class="cls-32" d="M194.39,454.02c-1.79.74-4.37.4-6.4.4,1.79-.74,4.37-.39,6.4-.4Z"/>
  <path class="cls-32" d="M184.39,454.42c-1.19.74-3.29.39-4.8.4,1.19-.74,3.29-.39,4.8-.4Z"/>
  <path class="cls-32" d="M198.79,453.62c-.79.72-2.47.39-3.6.4.79-.72,2.47-.39,3.6-.4Z"/>
  <g>
    <path class="cls-42" d="M186.39,447.22l12.8,1.21c4.96.43,3.06,3.63-.97,3.5l-9.03.89c-.07.36-.21.34-.4,0-3.98.52-7.98.79-12,.8-.66.56-1.35.59-2,0l-6,.4c-5.8.68-11.76.65-17.6.4-.13,0-.27,0-.4,0-30.81,1.18-61.64.99-92.5-.58-2.82-.08-16.97-.82-19.2-1.83-1.56-.71-2.55-1.82-1.06-3.22,1.67-1.58,18.38-2.2,21.87-2.33,41.63-1.53,84.49-2.41,126.49.77Z"/>
    <g>
      <path class="cls-39" d="M108.39,444.82c.63.31,1.37.32,2,0,23.66-.16,47.46.37,71,1.6,8.46.44,18.01.44,26.29,2.11.77.16,4.2.72,3.32,1.9-1.31,1.75-17.73,2.97-20.81,3.19-9.05.65-18.72.99-27.8,1.2-2.98.07-6.01.04-9.01,0-.68,0-1.78.26-2.19-.41,5.87-.12,11.73-.39,17.6-.4l6-.4c.67,0,1.33.01,2,0,4.04-.1,8.06-.2,12-.8.13,0,.27,0,.4,0,5.27-.28,10.41-1.08,15.42-2.39,1.13-.3-4.36-1.84-4.73-1.9l-13.49-1.31c-37.1-2.34-75.02-2.32-112.18-.78-10.22.42-22.35.17-32.31,2.09-.68.13-3.79.77-3.91,1.3-.14.61,1.42,1.55,1.91,1.69,2.32.65,8.74,1.05,11.49,1.3,32.16,2.93,67.06,2.28,99.4,1.6-1.12.47-2.97.75-4.18.82-17.85.98-37.67-.09-55.6-.43-17.8-.34-39.81.3-57.11-2.89-2-.37-7-1.77-2.46-3.05,7.44-2.1,21.43-2.45,29.54-2.86,15.28-.78,31.02-1.02,46.22-1.18.4,0,.8,0,1.2,0Z"/>
      <path class="cls-43" d="M110.39,444.82c-.26.63-1.74.63-2,0,.67,0,1.33,0,2,0Z"/>
      <path class="cls-34" d="M98.39,446.42c3.85-.33,7.76-.43,11.6,0,.35.11.34.25,0,.4-.09.27-.22.25-.4,0-14.41-.12-28.96.71-43.13,1.87-.41.03-8.32,1.12-8.05,1.43.45.52,12,1.96,13.57,2.06,26.61,1.65,53.62,1.42,80.41,1.05.35.11.34.25,0,.4-28.63.76-59.32,1.36-87.8-.8-1.99-.15-15.76-1.32-16.2-2-.71-1.09,1.07-1.73,1.9-1.9,13.87-2.79,33.7-2.34,48.1-2.5Z"/>
      <path class="cls-15" d="M98.39,446.42c.42-.66,1.52-.4,2.19-.41,27.3-.34,59.93-1.13,86.75,2.46.76.1,4.88.56,5.06.75,1.22,1.25-2.26,2.23-3.05,2.35-11.7,1.86-25.06,1.73-36.96,2.04v-.4c1.18-.3,2.44-.4,3.6,0l6.8-.4c.56-.42,1.47-.48,2,0,1.58-.29,3.18-.42,4.8-.4,4.1-.92,8.35-1.63,12.77-2.16-.03-.62-10.97-1.95-12.25-2.04-13.19-.95-25.85-1.23-39.06-1.41-7-.09-14.06-.22-21.06-.4-3.86,0-7.74-.04-11.6,0Z"/>
      <path class="cls-12" d="M186.39,447.22c2.66.17,18.07.78,19.03,2.4.27.46-.05,1.38-.53,1.6-5.18,1.13-10.45,1.31-15.7,1.6,1.74-.82,11.2-.85,11.94-2.06.14-.23.14-1.35.02-1.51-.72-.9-12.86-1.31-14.76-2.04Z"/>
      <path class="cls-12" d="M188.79,452.82c-1.65.39-4.12.72-5.8.8-2.06.1-4.14-.03-6.2,0l12-.8Z"/>
      <path class="cls-12" d="M174.79,453.62c-1.65.74-4.1.4-6,.4,1.65-.74,4.1-.4,6-.4Z"/>
      <path class="cls-17" d="M109.99,446.42c21.7.02,45.57-.4,67,2,.94.11,7.49.51,6.2,2.39-.39.57-11.84,1.48-13.6,1.61-1.62-.02-3.22.11-4.8.4-.66.03-1.34,0-2,0l-6.8.4c-1.2,0-2.4-.01-3.6,0-25.21.25-50.58,1.02-75.8-.4-4.6-.26-10.25-.57-14.76-1.24-.61-.09-4.1-.6-4.25-.75s-.05-1.1.4-1.4c.57-.38,8.81-1.27,10.21-1.39,13.63-1.17,27.69-1.15,41.4-1.2.35.11.34.25,0,.4-.36.78-.83.77-1.2,0-9.37.13-18.72.41-28.03.83-1.27.03-14.59,1.43-14.28,2.08.68,1.43,28.94,2.99,31.51,2.69.23-.76.57-.77.8,0,.33.17.69.23,1.07.24,22.12.39,46.47.73,68.19-1.56.85-.09,6.5-1.1,6.78-1.36.19-.17-4.68-1.02-4.93-1.05-12.62-1.21-25.5-1.81-38.3-1.87-.07.36-.21.34-.4,0-6.72-.29-13.65-.42-20.8-.4v-.4Z"/>
      <path class="cls-34" d="M162.79,452.82c-1.93.74-4.63.4-6.8.4,1.93-.75,4.63-.38,6.8-.4Z"/>
      <path class="cls-34" d="M169.59,452.42c-1.5.11-3.16.33-4.8.4,1.22-.88,3.28-.2,4.8-.4Z"/>
      <g>
        <path class="cls-7" d="M130.79,447.22c-6.88,1.23-14.31,1.14-21.2,0v-.4c.13,0,.27,0,.4,0,6.19-.01,12.41-.07,18.61,0,.68,0,1.78-.26,2.19.41Z"/>
        <path class="cls-1" d="M109.59,447.22c7.05-.13,14.15-.02,21.2,0,.13,0,.27,0,.4,0,11.8.07,23.73.56,35.79,1.48,1.83.1,4.65.37,2.73,2.33-.8.82-11.76,1.3-13.83,1.37-18.94.63-38.34,1.2-57.49.42-.27,0-.53,0-.8,0-4.62-.06-9.25-.24-13.87-.45-.96-.04-13.42-.66-13.89-1.63-.3-.6-.18-1.02.19-1.6,12.79-1.34,25.58-1.98,38.37-1.92.4,0,.8,0,1.2,0Z"/>
        <path class="cls-7" d="M108.39,447.22c-.05,0-.45.4-.97.42-12.39.28-24.76-.07-37.03,1.99-.11.6.13.91.68,1.12,1.03.39,4.93.73,6.32.88,6.51.69,13.77,1.01,20.2,1.2-7.79-.06-15.62-.15-23.4-.8-1.19-.1-9.81-.87-9.8-1.8.9-1,2.53-1.13,3.84-1.35,7.08-1.18,17.06-1.45,24.33-1.67,5.26-.15,10.56.15,15.82.02Z"/>
        <path class="cls-7" d="M131.19,447.22c12.12.05,24.54.01,36.6,1.2,1.02.1,7.57.88,7.8,1.2.46.64-.94,1.38-1.48,1.51-3.35.79-9.85,1.05-13.52,1.28-19.66,1.25-40.24,1.02-60,.81-.68,0-1.78.26-2.19-.41,15.06.41,30.38.08,45.38-.42,7.5-.25,15.78-.07,23.17-1.23,1.85-.29,4.35-1.52,1.25-1.96-11.32-1.6-23.38-1.44-34.81-1.59-.68,0-1.78.26-2.19-.41Z"/>
        <g>
          <path class="cls-28" d="M78.79,449.62c5.34-1.05,10.77-.97,16.19-1.21,17.05-.74,33.75-.75,50.79.02,1.7.08,15.77.19,15.81,1.78-2.24,1.01-5.32,1.17-7.8,1.4-19.66,1.77-51.88,2.33-71.19-.4-.41-.06-4.93-.54-3.8-1.59Z"/>
          <g>
            <path class="cls-8" d="M87.19,449.62c11.07-1.65,22.31-.75,33.41-1.63,8.47.91,17.1.08,25.58.83,4.08.36,11.79,1.43,2.4,2.39-13.77,1.42-28.14.47-42.01.82-5.92-.91-12.49-.16-18.38-1.22-.7-.13-1.12-.41-1-1.19Z"/>
            <path class="cls-13" d="M139.19,450.42c-3.18.11-6.64.69-9.78.82-6.77.27-13.83,0-20.45-.38-2.59-.15-5.19.06-7.77-.44.15-.72.79-.75,1.38-.81,9.67-1.04,25.58-1.06,35.23,0,.6.07,1.23.09,1.38.81Z"/>
          </g>
        </g>
      </g>
    </g>
  </g>
  <g>
    <path class="cls-45" d="M16.39,399.22l.4,2c1.06.17,1.01.48,0,.8l.4,1.2c.35.13.35.27,0,.4l.4,1.2c.35.11.35.24,0,.4l.4.8c.35.13.35.27,0,.4l.4.8c.35.13.35.27,0,.4.09,1.34-.34.84-.8,0-.04-.12.03-.27,0-.4l-.8-2c-.03-.12.03-.28,0-.4l-.4-1.2c-.02-.13.02-.27,0-.4l-.4-1.6c0-.13,0-.27,0-.4-.04-.97-.28-2.56.4-3.2,1.02.46,1.02.75,0,1.2Z"/>
    <g>
      <path class="cls-45" d="M224.39,29.22c.38,1.26.33,2.78,0,4-.11.35-.25.34-.4,0l-.89-1.28c-1.21-16.99-14.77-29.73-31.72-30.34H49c-16.45.63-30.02,12.62-31.68,29.16l-.93,1.26c-.16,118.18-.27,236.36-.35,354.54l-.45,11.06.02-223.42c.4-1.73-1.96-1.16-2.04-1.61l.02-31.58c-.14-1.34,1.94-.74,2.02-1.22.13-.73.26-7.88-.04-8.16-.24-.22-2.31.41-2-1.4l.02-30.42c-.14-1.34,1.94-.74,2.02-1.22.28-1.58.28-11.97,0-13.55-.08-.46-1.17-.08-1.64-.4-.92-.63-.08-14.22-.4-16.4.11-.4.85-.24,1.22-.22q.61,3.12,0,0c.2-.33.93-.33.83-.99.74-12.13-1.09-25.63-.02-37.6C16.98,13.99,31.22.85,46.57,0l148.37.07c14.69,1.51,28.51,14.12,29.45,29.15Z"/>
      <g>
        <path class="cls-44" d="M16.39,398.02c-.17,1.12-.3,2.19-.4,3.2-.83-.82-.25-2.47-.4-3.6,1.2-121.69-.4-243.91.8-365.6l.8.39v365.11l-.8.5Z"/>
        <path class="cls-6" d="M15.59,140.42v13c0,.19-.49,1.23-.8,1v-10.6c0-.09-.91-.56-.81-1.57.05-.58.93-2.24,1.61-1.83Z"/>
        <path class="cls-23" d="M15.59,130.82c-2.82-.53-.8-2.03-.8-2.2v-10.6h.4c-.25.63.4,1.5.4,1.8v11Z"/>
        <path class="cls-2" d="M14.79,99.62c.25-.36.13-.55.8-.4l.02,9.02-.81,3.38c.09-2.52-.14-5.08,0-7.6.1-1.42.1-2.89,0-4.4Z"/>
        <path class="cls-37" d="M15.59,166.82v5.2c-2.92-.35-1.01-1.32-.78-2.98.21-1.52-.05-3.77-.02-5.42l.41-.07.39,3.27Z"/>
        <path class="cls-20" d="M15.59,84.42c-2.86-.41-1-.95-.81-2.21.22-1.55-.13-3.39.02-4.98.4-.17.8.93.8,1v6.2Z"/>
        <path class="cls-4" d="M15.59,166.82l-.8-3.2c.03-1.53-.06-3.07,0-4.6.02-.48-.3-1.49.4-1.39.71,3,.31,6.13.4,9.2Z"/>
        <path class="cls-27" d="M14.79,68.02c.26.02.53-.01.8,0-.08,2.14.3,4.34-.4,6.39-.69.1-.38-.91-.4-1.39-.03-.93.19-2.4,0-3.14s-1.44.57,0-1.86Z"/>
        <path class="cls-21" d="M14.79,104.02c.27-2.09-1.41-2.39,0-4.4.69.87.46,2.7.39,3.81-.04.64-.39.56-.39.59Z"/>
      </g>
    </g>
    <g>
      <path class="cls-16" d="M223.99,33.22c-1.12,121.57,1.5,243.24,0,364.8l-.4,2.4c-.03.26.03.54,0,.8l-.4,1.6c-.02.13,0,.27,0,.4l-.4,1.2c0,.13,0,.27,0,.4-4.07,12.69-14.74,22.14-28.19,23.61l-149.21-.02c-12.07-1.38-22.36-9.7-27.01-20.79-.05-.11.05-.28,0-.4l-.4-.8c-.04-.12.04-.28,0-.4l-.4-.8c-.04-.12.03-.28,0-.4l-.4-1.2c-.03-.13.03-.27,0-.4l-.4-1.2c-.04-.25.03-.54,0-.8l-.4-2c0-.4,0-.8,0-1.2V32.02C17.86,14.07,31.13,1.79,48.97.8h142.44c18.38,1,31.56,14,32.58,32.42Z"/>
      <path class="cls-36" d="M193.59,427.22H46.79c-15.22-.75-27.43-13.29-29.19-28.21l-.03-367.61c1.19-14.14,11.69-25.99,25.6-28.8,49.97-1.34,100.16-.21,150.22-.57,14.24,1.25,26.13,11.94,28.9,25.9,1.18,123.35.18,246.87.5,370.29-1.36,15.08-13.87,28.27-29.19,29.01Z"/>
      <path class="cls-14" d="M46.71,3.34l146.27-.11c13.37,1.32,24.6,10.86,27.62,23.98,1.37,123.7.18,247.64.6,371.43-1.74,15.32-14.03,26.77-29.4,27.8l-143.61-.02c-15.14-1.12-27.56-12.57-29.02-27.78l.02-368.81c2.06-14.05,13.35-25.02,27.51-26.49Z"/>
      <path class="cls-19" d="M47.51,10.14l144.67-.11c10.99,1.07,19.88,8.64,22.1,19.5.85,123.43.84,247.15,0,370.59-2.6,11.42-11.64,18.74-23.28,19.52l-142.01-.02c-12.62-.74-22.59-10.25-23.42-22.98V32.6c.98-11.91,10.02-21.3,21.94-22.46Z"/>
      <g>
        <path class="cls-44" d="M16.79,401.22c-.64-.34-.38-1.36-.4-2,.69.35.32,1.38.4,2Z"/>
        <path class="cls-44" d="M17.59,404.82l-.4-1.2c.03.13.28.76.4,1.2Z"/>
        <path class="cls-44" d="M17.19,403.22l-.4-1.2c.01.06.28.63.4,1.2Z"/>
        <path class="cls-44" d="M18.39,407.22l-.4-.8c.03.09.26.45.4.8Z"/>
        <path class="cls-44" d="M17.99,406.02l-.4-.8s.25.36.4.8Z"/>
        <g>
          <path class="cls-14" d="M101.08,16.52l36.28-.07c7.42,2.06,7.16,12.07-.41,13.54l-35.87-.06c-7.26-1.98-7.24-11.44,0-13.41Z"/>
          <g>
            <path class="cls-10" d="M131.59,24.82c-.71-1.56,1.4-.57,2,0l.53-1.3c.79-.06,1.28-.43,1.47-1.1.03-.37-.2-1.1.2-1.2,3.66,3.03-1.34,7.57-4.2,3.6Z"/>
            <path class="cls-11" d="M132.79,23.22c.51-.42.65-.15.4.8.34-.16.46,0,.4.4.35.11.34.25,0,.4-.72.13-1,.73-1.8-.39l-.2.39c-.55-.77-1.37-1.16-.21-1.95.33.32,1.25.25,1.41.35Z"/>
            <path class="cls-5" d="M134.79,22.02c.32.36.15.98-.4.8-.12.33-.25.32-.4,0-.19.61-.45,1.01-.8,1.2-.31-.38-.36-.78-.4-.8.42-.97.98-1.21,2-1.2Z"/>
            <path class="cls-40" d="M135.59,22.42c-.05.53.04,1.07,0,1.6l-1.19-.4.4,1.19c-.39.05-.84-.06-1.2,0v-.4c-.16-.48-.02-1.02.4-1.6.06-.03.31-.02.4,0,.32.04.59-.09.8-.4h.4Z"/>
            <path class="cls-38" d="M135.19,22.42c.14,1.61-.6.44-.8.4l.4-.8c.19,0,.38.19.4.4Z"/>
            <path class="cls-38" d="M133.59,24.42c-.14-.12-.28-.25-.4-.4.37-.34.34-.98.8-1.2l-.4,1.6Z"/>
          </g>
        </g>
      </g>
    </g>
  </g>
</svg>